{"glyphs":{"0":{"ha":832,"x_min":44,"x_max":782,"o":"m 414 1038 q 565 993 494 1038 q 685 869 635 949 q 756 708 729 799 q 782 513 782 617 q 756 318 782 410 q 685 157 729 226 q 565 34 635 79 q 414 -11 494 -11 q 263 34 333 -11 q 143 157 193 79 q 72 318 99 226 q 44 513 44 410 q 72 708 44 617 q 143 869 99 799 q 263 993 193 949 q 414 1038 333 1038 m 507 722 q 464 769 488 751 q 414 786 440 786 q 364 769 388 786 q 321 722 340 751 q 281 628 296 682 q 265 513 265 575 q 281 397 265 450 q 321 304 296 344 q 364 255 340 272 q 414 238 388 238 q 464 255 440 238 q 507 304 488 272 q 547 397 532 344 q 561 513 561 450 q 547 628 561 575 q 507 722 532 682 z "},"1":{"ha":444,"x_min":29,"x_max":389,"o":"m 29 992 l 193 1036 l 389 1036 l 389 -4 l 139 -4 l 139 746 l 96 732 l 29 992 z "},"2":{"ha":797,"x_min":50,"x_max":751,"o":"m 50 667 q 51 690 50 667 q 59 749 51 713 q 83 828 67 785 q 132 911 100 871 q 214 985 164 951 q 339 1033 264 1018 q 453 1042 399 1047 q 553 1018 507 1038 q 675 924 625 988 q 739 786 725 861 q 745 666 751 729 q 711 539 739 603 q 663 451 692 492 q 599 377 633 411 q 526 314 565 343 q 450 258 488 285 l 708 258 l 708 8 l 57 8 l 57 194 l 60 211 q 81 275 64 246 q 125 330 99 304 q 185 380 151 356 q 258 429 219 404 q 324 474 290 450 q 389 524 358 499 q 444 577 419 550 q 481 632 468 604 q 496 690 493 664 q 496 736 499 715 q 456 786 488 774 q 390 790 424 799 q 328 750 356 781 q 300 672 300 719 l 50 667 z "},"3":{"ha":735,"x_min":26,"x_max":689,"o":"m 135 1029 q 167 1032 135 1029 q 248 1034 199 1035 q 356 1026 297 1033 q 467 997 414 1018 q 560 940 519 976 q 613 844 600 903 q 605 739 624 788 q 553 650 586 690 q 638 558 607 611 q 679 445 669 504 q 678 324 689 386 q 635 203 667 261 q 510 58 585 107 q 353 0 436 8 q 184 24 269 -8 q 26 125 99 56 l 196 318 q 256 277 221 293 q 324 260 290 261 q 392 283 364 260 q 430 338 421 306 q 426 403 439 369 q 371 458 414 438 q 324 476 351 469 q 264 482 297 482 l 240 667 q 327 711 297 689 q 357 752 357 733 q 328 782 357 771 q 239 792 299 793 q 199 790 218 790 q 165 790 181 790 q 135 789 149 790 l 135 1029 z "},"4":{"ha":681,"x_min":49,"x_max":639,"o":"m 300 1040 l 300 500 l 361 500 l 361 871 l 610 871 l 610 500 l 639 500 l 639 246 l 610 246 l 610 -1 l 361 -1 l 361 246 l 49 246 l 49 1040 l 300 1040 z "},"5":{"ha":732,"x_min":38,"x_max":688,"o":"m 590 788 l 299 788 l 299 715 q 415 692 356 708 q 526 644 474 675 q 617 567 578 614 q 675 451 657 519 q 686 357 688 403 q 671 269 685 311 q 609 163 650 208 q 515 85 568 117 q 400 36 463 54 q 274 13 338 18 q 150 15 211 8 q 38 38 89 21 l 115 275 q 194 261 149 265 q 284 263 239 257 q 367 288 329 269 q 424 339 404 306 q 413 416 446 378 q 292 468 379 454 q 208 476 251 474 q 131 476 165 478 q 73 474 96 475 q 50 472 50 472 l 49 1039 l 590 1039 l 590 788 z "},"6":{"ha":757,"x_min":36,"x_max":717,"o":"m 593 842 q 557 813 575 828 q 476 740 524 786 q 626 635 569 708 q 701 467 683 561 q 699 280 717 369 q 619 119 682 190 q 491 29 564 56 q 345 11 418 3 q 207 62 272 19 q 100 176 142 104 q 45 352 54 256 q 57 532 36 449 q 105 658 71 596 q 181 777 139 721 q 269 881 224 833 q 353 965 315 929 q 415 1020 390 1000 q 440 1040 440 1040 l 593 842 m 393 260 q 433 283 418 264 q 453 326 447 301 q 459 376 460 350 q 456 422 458 403 q 425 486 447 467 q 378 504 403 506 q 329 483 353 503 q 296 431 306 464 q 290 378 289 410 q 303 319 292 347 q 336 272 314 290 q 393 260 358 254 z "},"7":{"ha":692,"x_min":50,"x_max":661,"o":"m 56 1028 l 661 1028 l 640 769 q 617 730 640 769 q 558 626 593 690 q 482 480 524 561 q 403 313 440 399 q 338 147 365 228 q 303 3 310 65 l 50 35 q 91 208 60 113 q 164 402 122 304 q 252 592 206 500 q 339 757 299 685 l 56 757 l 56 1028 z "},"8":{"ha":771,"x_min":40,"x_max":729,"o":"m 385 256 q 422 264 404 256 q 451 285 439 272 q 472 316 464 299 q 479 351 479 333 q 450 418 479 392 q 385 444 421 444 q 319 416 346 444 q 292 351 292 388 q 299 315 292 332 q 320 285 307 299 q 350 263 333 271 q 385 256 367 256 m 385 1039 q 490 1017 440 1039 q 574 959 539 996 q 631 874 610 922 q 651 771 651 825 q 640 690 651 729 q 606 618 628 650 q 697 498 665 565 q 729 351 729 431 q 701 214 729 278 q 624 103 672 150 q 514 29 576 56 q 385 3 451 3 q 247 32 310 3 q 138 110 183 61 q 66 222 92 160 q 40 351 40 285 q 73 501 40 431 q 165 618 106 572 q 131 690 143 650 q 119 771 119 729 q 141 876 119 826 q 199 961 163 925 q 283 1018 235 997 q 385 1039 331 1039 m 385 817 q 351 803 363 817 q 340 771 340 790 q 353 738 340 751 q 385 725 367 725 q 417 739 404 725 q 431 771 431 753 q 417 805 431 793 q 385 817 404 817 z "},"9":{"ha":751,"x_min":32,"x_max":713,"o":"m 156 179 q 192 209 157 181 q 274 286 226 238 q 122 394 179 319 q 46 567 64 468 q 40 713 32 642 q 70 831 47 776 q 128 925 93 885 q 256 1017 183 990 q 403 1035 329 1044 q 542 983 476 1026 q 649 865 607 940 q 698 730 683 806 q 703 567 713 654 q 698 535 700 551 q 693 501 696 519 q 645 370 679 435 q 569 247 611 306 q 481 139 526 189 q 397 53 435 89 q 335 -3 360 17 q 310 -24 310 -24 l 156 179 m 356 779 q 316 756 331 775 q 295 711 301 736 q 289 659 289 686 q 292 611 289 632 q 323 547 300 567 q 372 528 346 526 q 420 548 397 529 q 453 600 443 567 q 458 657 458 624 q 446 719 457 690 q 413 766 435 747 q 356 779 390 785 z "},"\u0000":{"ha":0,"x_min":0,"x_max":0,"o":""},"\r":{"ha":414,"x_min":0,"x_max":0,"o":""}," ":{"ha":414,"x_min":0,"x_max":0,"o":""},"E":{"ha":685,"x_min":53,"x_max":633,"o":"m 633 758 l 304 761 l 304 582 l 507 582 l 507 332 l 304 332 l 304 238 l 625 238 l 625 -11 l 53 -11 l 53 1010 l 633 1006 l 633 758 z "},"K":{"ha":767,"x_min":46,"x_max":721,"o":"m 294 1028 l 294 763 l 526 1018 l 713 850 l 419 529 l 721 128 l 522 -22 l 294 282 l 294 22 l 46 22 l 46 1028 l 294 1028 z "},"I":{"ha":365,"x_min":54,"x_max":304,"o":"m 304 972 l 304 -3 l 54 -3 l 54 972 l 304 972 z "},"N":{"ha":904,"x_min":50,"x_max":851,"o":"m 50 53 l 50 950 l 299 950 l 603 461 l 603 972 l 851 972 l 851 18 l 603 18 l 299 449 l 299 53 l 50 53 z "},"D":{"ha":851,"x_min":57,"x_max":797,"o":"m 307 1028 q 398 1010 340 1025 q 519 962 456 994 q 643 876 582 929 q 744 746 704 824 q 784 643 771 697 q 797 535 797 589 q 765 365 797 440 q 681 233 732 290 q 571 136 631 176 q 457 71 511 96 q 361 34 403 46 q 307 24 319 22 l 57 24 l 57 1028 l 307 1028 m 307 300 q 431 344 379 308 q 510 427 482 379 q 541 529 538 475 q 520 630 544 583 q 443 708 496 676 q 307 744 390 740 l 307 300 z "},"S":{"ha":772,"x_min":40,"x_max":733,"o":"m 517 717 q 492 743 507 731 q 455 763 478 754 q 397 771 432 771 q 366 765 382 771 q 344 749 350 758 q 344 728 338 740 q 383 706 351 717 q 408 696 396 700 q 432 685 421 692 q 550 622 490 660 q 650 531 610 583 q 709 415 693 475 q 720 295 725 354 q 690 183 715 236 q 625 87 665 129 q 531 17 585 44 q 414 -17 476 -11 q 328 -15 371 -21 q 243 8 285 -10 q 120 93 174 36 q 40 240 67 150 l 278 319 q 323 262 290 279 q 392 247 356 244 q 439 262 415 249 q 465 303 463 275 q 454 351 467 329 q 422 390 442 372 q 380 420 403 407 q 336 442 357 433 q 317 449 325 446 q 300 456 308 453 q 156 549 207 492 q 89 669 104 606 q 90 798 74 733 q 149 915 107 863 q 255 1001 192 968 q 397 1035 318 1033 q 549 1007 486 1036 q 653 942 613 978 q 714 878 694 907 q 733 849 733 849 l 517 717 z "},"a":{"ha":778,"x_min":51,"x_max":717,"o":"m 714 18 l 464 18 l 464 42 q 306 42 376 26 q 182 97 235 57 q 83 228 115 149 q 53 393 51 308 q 88 556 54 478 q 186 682 122 635 q 307 744 239 722 q 449 772 375 765 q 542 775 497 776 q 624 771 588 774 q 684 765 660 768 q 717 760 708 761 l 714 18 m 464 510 q 355 496 396 515 q 297 446 314 476 q 285 381 281 415 q 313 322 290 346 q 376 289 336 297 q 467 303 415 281 l 464 510 z "},"d":{"ha":799,"x_min":57,"x_max":733,"o":"m 733 1081 l 733 -22 l 485 -22 q 297 8 378 -26 q 163 103 217 43 q 83 240 110 163 q 58 399 57 318 q 85 558 58 481 q 165 696 111 636 q 298 790 218 756 q 485 821 378 825 l 485 1081 l 733 1081 m 485 553 q 393 531 429 554 q 339 472 357 507 q 322 394 321 436 q 340 318 322 353 q 394 263 358 283 q 485 246 431 242 l 485 553 z "},"e":{"ha":751,"x_min":50,"x_max":694,"o":"m 499 439 q 470 521 500 490 q 401 553 440 551 q 326 527 363 556 q 282 435 290 499 l 499 439 m 594 260 l 286 260 q 320 212 294 226 q 375 197 346 197 q 428 210 404 197 q 457 244 453 222 l 669 199 q 601 62 653 115 q 481 -14 549 8 q 337 -26 413 -36 q 198 28 261 -17 q 93 151 135 72 q 50 346 51 229 q 77 510 50 438 q 149 636 104 583 q 252 720 194 689 q 369 758 310 751 q 488 747 429 765 q 591 681 546 728 q 665 559 636 635 q 694 376 693 483 q 693 319 694 349 q 686 260 692 290 l 594 260 z "},"h":{"ha":789,"x_min":56,"x_max":733,"o":"m 306 1099 l 306 717 q 435 707 364 717 q 570 664 507 697 q 679 569 633 631 q 732 404 725 507 l 733 394 l 733 -37 l 483 -37 l 483 338 q 461 403 479 379 q 417 439 443 428 q 362 452 392 450 q 306 453 332 454 l 306 -56 l 56 -56 l 56 1099 l 306 1099 z "},"i":{"ha":374,"x_min":60,"x_max":310,"o":"m 310 732 l 310 43 l 60 43 l 60 732 l 310 732 m 186 781 q 141 790 163 781 q 103 817 119 800 q 76 858 86 835 q 67 906 67 881 q 76 956 67 932 q 103 997 86 979 q 141 1024 119 1014 q 186 1035 163 1035 q 233 1024 211 1035 q 270 997 254 1014 q 296 956 286 979 q 306 906 306 932 q 296 858 306 881 q 270 817 286 835 q 233 790 254 800 q 186 781 211 781 z "},"k":{"ha":775,"x_min":68,"x_max":722,"o":"m 317 1097 l 317 642 l 558 856 l 717 649 l 451 417 l 722 125 l 543 -60 l 317 183 l 317 17 l 68 17 l 68 1097 l 317 1097 z "},"l":{"ha":456,"x_min":54,"x_max":404,"o":"m 304 1031 l 304 322 q 306 297 306 314 q 314 263 307 279 q 338 237 321 247 q 388 233 354 226 l 404 -32 q 258 -19 318 -39 q 158 33 197 0 q 98 110 119 67 q 67 194 76 153 q 56 271 57 236 q 56 322 54 306 l 56 1031 l 304 1031 z "},"p":{"ha":818,"x_min":51,"x_max":749,"o":"m 301 219 q 407 240 363 217 q 476 298 451 263 q 504 375 500 333 q 488 450 508 417 q 421 501 467 483 q 301 510 375 519 l 301 219 m 301 -281 l 51 -281 l 51 774 l 264 774 q 469 769 381 794 q 619 688 558 743 q 711 554 679 632 q 746 394 743 476 q 723 230 749 311 q 642 86 697 149 q 501 -13 586 24 q 301 -44 417 -50 l 301 -281 z "},"s":{"ha":669,"x_min":36,"x_max":642,"o":"m 489 535 q 389 587 433 576 q 322 591 344 597 q 306 568 300 585 q 360 538 313 551 q 475 493 419 519 q 569 418 531 467 q 625 193 642 329 q 582 79 615 126 q 500 4 549 32 q 372 -33 440 -28 q 240 -19 304 -37 q 122 40 176 0 q 36 138 68 79 l 215 268 q 256 216 228 239 q 315 190 285 193 q 367 197 349 186 q 388 224 385 207 q 380 258 392 240 q 340 286 368 275 q 262 315 300 301 q 190 345 224 329 q 127 383 156 361 q 81 436 99 404 q 51 522 57 478 q 56 610 46 567 q 88 692 65 653 q 143 761 111 731 q 249 823 190 806 q 369 837 308 840 q 488 815 429 833 q 597 771 547 797 l 489 535 z "},"B":{"ha":804,"x_min":54,"x_max":761,"o":"m 306 1061 q 446 1048 378 1064 q 569 1001 514 1032 q 661 928 624 971 q 711 834 699 885 q 707 726 724 783 q 636 608 690 668 q 756 383 747 524 q 719 216 761 288 q 607 99 676 144 q 451 31 538 53 q 279 11 364 8 l 54 14 l 54 1064 l 306 1061 m 306 260 q 417 278 372 261 q 483 318 461 294 q 506 367 506 342 q 483 413 506 393 q 417 442 461 433 q 306 443 372 451 l 306 260 m 303 693 q 406 707 365 688 q 453 751 447 726 q 426 796 460 776 q 306 811 393 815 l 303 693 z "},"C":{"ha":908,"x_min":39,"x_max":860,"o":"m 624 701 q 615 715 624 701 q 587 744 607 729 q 534 769 567 760 q 453 774 501 779 q 351 717 388 765 q 302 605 315 669 q 296 472 289 540 q 325 354 303 403 q 383 275 347 306 q 468 246 419 244 q 548 269 519 247 q 590 317 576 292 q 607 365 604 343 q 610 386 610 386 l 860 375 q 857 347 860 375 q 842 278 854 319 q 807 190 831 238 q 741 99 783 142 q 634 28 699 57 q 478 -3 569 0 q 349 13 408 -6 q 242 65 290 31 q 158 147 194 99 q 96 251 121 194 q 51 404 64 322 q 45 568 39 486 q 77 726 51 650 q 149 865 103 803 q 264 969 196 928 q 421 1022 332 1011 q 561 1020 499 1032 q 671 985 624 1008 q 752 931 718 961 q 808 872 786 900 q 839 826 829 844 q 849 807 849 807 l 624 701 z "},"F":{"ha":650,"x_min":56,"x_max":603,"o":"m 603 763 l 310 758 l 310 599 l 515 597 l 514 338 l 310 340 l 310 7 l 56 7 l 56 1019 q 327 1019 196 1019 q 597 1022 458 1019 l 603 763 z "},"G":{"ha":954,"x_min":44,"x_max":900,"o":"m 644 726 l 640 731 q 574 764 610 754 q 501 771 539 774 q 408 740 447 767 q 342 671 368 713 q 306 579 317 629 q 296 481 294 529 q 314 376 299 425 q 361 292 329 326 q 433 246 392 258 q 515 240 475 233 q 590 269 556 246 q 643 333 625 293 l 478 326 l 472 576 l 899 589 l 899 464 q 878 289 900 372 q 809 142 856 206 q 690 40 763 78 q 517 -1 617 1 q 326 31 411 -4 q 179 131 240 67 q 84 283 118 196 q 47 472 50 371 q 72 667 44 572 q 156 838 100 763 q 293 963 211 914 q 481 1021 375 1013 q 647 1003 564 1028 q 796 924 729 978 q 807 914 804 918 l 644 726 z "},"J":{"ha":764,"x_min":46,"x_max":713,"o":"m 713 1028 l 713 385 q 683 208 713 283 q 606 83 654 133 q 498 8 558 33 q 374 -19 438 -18 q 251 1 311 -21 q 146 68 192 24 q 73 181 100 113 q 50 338 46 249 l 299 328 q 309 267 297 292 q 340 230 321 242 q 380 220 358 218 q 420 241 401 222 q 450 295 439 260 q 460 385 461 331 l 460 1028 l 713 1028 z "},"M":{"ha":1122,"x_min":43,"x_max":1067,"o":"m 43 38 l 106 1049 l 388 1042 l 568 490 l 729 1044 l 997 1068 l 1067 57 l 817 40 l 796 376 l 656 31 l 492 28 l 318 447 l 293 24 l 43 38 z "},"O":{"ha":1047,"x_min":44,"x_max":994,"o":"m 519 1053 q 708 1011 621 1053 q 863 894 796 969 q 960 731 925 824 q 994 532 994 639 q 960 335 994 428 q 863 172 925 242 q 708 55 796 97 q 519 13 621 13 q 333 55 419 13 q 179 172 246 97 q 81 335 117 242 q 44 532 44 428 q 81 731 44 639 q 179 894 117 824 q 333 1011 246 969 q 519 1053 419 1053 m 675 729 q 604 782 643 763 q 519 801 565 801 q 435 782 475 801 q 367 729 396 763 q 315 641 333 692 q 296 532 296 590 q 315 424 296 474 q 367 338 333 375 q 435 283 396 303 q 519 264 475 264 q 604 283 565 264 q 675 338 643 303 q 726 424 707 375 q 744 532 744 474 q 726 641 744 590 q 675 729 707 692 z "},"Q":{"ha":1050,"x_min":42,"x_max":993,"o":"m 518 1053 q 706 1011 618 1053 q 860 894 793 969 q 958 731 922 824 q 993 532 993 639 q 958 335 993 428 q 860 172 922 242 q 852 164 857 168 q 844 156 847 160 l 900 50 l 706 -78 l 649 33 q 518 13 583 13 q 330 55 418 13 q 176 172 242 97 q 78 335 114 242 q 42 532 42 428 q 78 731 42 639 q 176 894 114 824 q 330 1011 242 969 q 518 1053 418 1053 m 685 454 l 711 399 q 734 462 726 428 q 742 532 742 496 q 726 630 742 582 q 682 716 711 678 q 611 778 653 754 q 518 801 569 801 q 422 776 464 801 q 352 713 381 751 q 308 626 324 674 q 293 532 293 578 q 312 424 293 474 q 364 338 331 375 q 435 283 396 303 q 518 264 474 264 l 522 264 l 490 325 l 685 454 z "},"R":{"ha":749,"x_min":56,"x_max":710,"o":"m 308 529 q 388 569 354 543 q 439 625 421 594 q 460 688 457 656 q 447 749 463 721 q 398 799 432 778 q 308 826 364 819 l 308 529 m 485 336 q 561 296 513 313 q 686 285 610 279 l 700 35 q 568 40 628 31 q 460 67 508 49 q 374 110 411 85 q 308 163 336 135 l 308 32 l 56 32 l 56 1072 q 201 1073 126 1074 q 347 1063 275 1072 q 483 1032 418 1054 q 597 969 547 1010 q 676 864 646 928 q 708 707 706 800 q 694 594 710 649 q 650 491 679 539 q 578 403 621 443 q 485 336 536 364 z "},"b":{"ha":782,"x_min":49,"x_max":743,"o":"m 299 1046 l 299 751 q 551 690 453 744 q 697 558 650 636 q 739 388 743 479 q 683 216 735 297 q 533 76 631 135 q 297 6 436 18 l 49 4 l 49 1046 l 299 1046 m 299 261 q 433 310 382 274 q 489 388 483 347 q 450 463 494 429 q 299 501 406 496 l 299 261 z "},"c":{"ha":810,"x_min":40,"x_max":754,"o":"m 489 558 q 468 599 488 585 q 422 610 449 613 q 366 588 394 608 q 319 524 338 567 q 306 479 311 506 q 300 424 301 453 q 301 364 299 394 q 310 307 303 333 q 353 229 322 253 q 418 206 385 206 q 478 229 451 207 q 510 290 506 251 l 754 274 q 720 143 751 200 q 639 47 689 86 q 526 -12 589 8 q 396 -31 463 -32 q 217 26 290 -28 q 101 161 143 79 q 50 342 60 243 q 60 535 40 442 q 132 704 81 628 q 264 817 183 781 q 408 850 331 847 q 556 826 486 853 q 675 741 625 799 q 735 594 725 683 l 489 558 z "},"f":{"ha":551,"x_min":42,"x_max":528,"o":"m 43 688 l 89 688 q 115 878 85 806 q 194 990 146 950 q 301 1043 243 1029 q 410 1057 360 1057 q 494 1051 460 1057 q 528 1044 528 1044 l 474 800 q 451 803 474 800 q 403 800 429 807 q 356 768 376 793 q 339 688 336 743 l 339 685 l 489 685 l 489 435 l 350 436 q 354 273 353 349 q 357 139 356 197 q 358 14 358 72 l 108 14 q 107 139 108 72 q 104 273 106 197 q 100 436 103 349 l 42 436 l 43 688 z "},"g":{"ha":779,"x_min":33,"x_max":717,"o":"m 717 756 l 717 82 q 694 -59 717 10 q 629 -183 672 -128 q 525 -272 586 -237 q 386 -307 464 -306 q 251 -284 310 -308 q 150 -215 192 -260 q 85 -110 108 -171 q 56 25 61 -49 l 285 44 q 316 -35 289 -8 q 374 -61 343 -61 q 431 -35 406 -61 q 461 43 457 -10 q 267 69 350 39 q 132 153 185 100 q 56 274 79 206 q 41 414 33 343 q 86 552 49 485 q 192 669 124 619 q 358 746 260 719 q 588 761 457 772 l 717 756 m 465 522 q 367 507 406 524 q 308 463 328 490 q 290 405 289 436 q 310 347 290 374 q 368 306 329 321 q 465 294 407 290 l 465 522 z "},"j":{"ha":383,"x_min":-78,"x_max":311,"o":"m 311 688 l 311 60 q 310 9 311 44 q 297 -70 308 -26 q 263 -159 286 -114 q 195 -240 239 -204 q 85 -294 151 -275 q -78 -301 18 -312 l -53 -54 q 36 -31 10 -61 q 61 60 63 -1 l 61 688 l 311 688 m 188 758 q 141 767 163 758 q 103 793 119 776 q 76 831 86 810 q 67 878 67 853 q 76 924 67 903 q 103 963 86 946 q 141 988 119 979 q 188 997 163 997 q 273 963 238 997 q 308 878 308 928 q 273 793 308 828 q 188 758 238 758 z "},"o":{"ha":881,"x_min":54,"x_max":831,"o":"m 442 811 q 597 778 525 811 q 720 689 668 744 q 801 563 772 633 q 831 417 831 492 q 799 263 831 335 q 715 136 768 190 q 590 50 661 82 q 442 18 519 18 q 287 52 358 18 q 164 142 215 86 q 83 270 113 199 q 54 417 54 342 q 85 569 54 497 q 170 695 117 642 q 294 780 224 749 q 442 811 364 811 m 442 563 q 387 550 413 563 q 343 517 361 538 q 315 469 325 496 q 304 417 304 443 q 315 361 304 388 q 344 314 325 335 q 388 281 363 293 q 442 269 413 269 q 498 282 472 269 q 542 315 524 294 q 570 363 560 336 q 581 417 581 389 q 569 472 581 446 q 540 519 558 499 q 495 551 521 539 q 442 563 469 563 z "},"q":{"ha":808,"x_min":44,"x_max":747,"o":"m 493 582 q 398 542 438 569 q 337 483 358 515 q 313 415 315 450 q 331 350 311 379 q 391 301 350 321 q 497 281 432 282 l 493 582 m 494 40 q 281 72 369 38 q 139 163 193 106 q 65 292 85 219 q 55 439 44 364 q 107 585 65 514 q 217 709 149 656 q 383 792 286 763 q 600 813 479 821 l 747 808 l 747 -265 l 494 -265 l 494 40 z "},"T":{"ha":694,"x_min":26,"x_max":667,"o":"m 488 803 l 488 25 l 239 25 l 239 804 l 26 806 l 28 1056 l 667 1053 l 665 801 l 488 803 z "},"r":{"ha":703,"x_min":60,"x_max":664,"o":"m 311 785 l 311 772 q 390 790 344 783 q 483 790 435 797 q 579 760 532 783 q 664 688 626 736 l 519 485 q 445 530 482 521 q 378 527 408 539 q 330 485 349 515 q 311 411 311 454 l 311 18 l 60 18 l 60 785 l 311 785 z "},"t":{"ha":585,"x_min":40,"x_max":542,"o":"m 356 925 l 356 769 l 503 769 l 503 521 l 356 521 l 356 318 q 371 274 357 292 q 408 249 382 258 q 482 251 433 240 l 542 10 q 356 -6 432 -18 q 232 41 281 7 q 157 122 183 75 q 119 213 131 169 q 106 288 108 257 q 104 318 104 318 l 104 521 l 40 521 l 40 769 l 104 769 l 104 925 l 356 925 z "},"U":{"ha":894,"x_min":44,"x_max":846,"o":"m 326 958 q 321 927 326 958 q 308 844 315 896 q 295 728 301 793 q 287 595 289 663 q 290 463 285 528 q 310 347 294 397 q 353 265 325 296 q 425 236 381 235 q 494 259 465 236 q 542 319 522 282 q 574 406 563 357 q 589 508 585 456 q 593 650 594 578 q 587 788 592 722 q 575 906 582 853 q 563 992 568 960 l 808 1032 q 822 936 814 996 q 837 803 831 876 q 844 648 843 731 q 838 485 846 565 q 803 298 828 388 q 730 140 778 208 q 608 31 682 72 q 429 -12 535 -11 q 258 28 328 -15 q 145 142 189 71 q 80 303 101 213 q 51 490 58 394 q 48 678 44 586 q 59 842 51 769 q 74 958 67 914 q 82 1004 82 1003 l 326 958 z "},"V":{"ha":860,"x_min":24,"x_max":836,"o":"m 264 1043 l 431 449 l 596 1057 l 836 994 l 569 -10 l 300 -10 l 24 978 l 264 1043 z "},"W":{"ha":1272,"x_min":28,"x_max":1240,"o":"m 268 1129 l 429 590 l 582 1025 l 765 1036 l 882 608 l 999 1065 l 1240 1003 l 981 7 l 769 7 l 667 515 l 538 7 l 342 7 l 28 1060 l 268 1129 z "},"X":{"ha":851,"x_min":32,"x_max":807,"o":"m 286 1015 l 433 760 l 601 1003 l 807 865 l 572 519 l 806 114 l 589 -11 l 415 288 l 239 26 l 32 169 l 278 529 l 68 890 l 286 1015 z "},"Y":{"ha":936,"x_min":33,"x_max":904,"o":"m 249 1053 l 476 676 l 685 1058 l 904 939 l 604 389 l 601 4 l 353 6 l 356 393 l 33 921 l 249 1053 z "},"Z":{"ha":857,"x_min":46,"x_max":817,"o":"m 96 988 l 817 1000 l 804 776 l 406 267 l 747 267 l 747 18 l 46 18 l 46 250 l 463 746 l 99 739 l 96 988 z "},"u":{"ha":754,"x_min":54,"x_max":692,"o":"m 306 729 l 306 374 q 329 279 307 308 q 376 252 351 250 q 421 286 401 254 q 439 376 440 318 l 439 713 l 690 713 l 689 360 q 645 160 692 242 q 528 34 599 78 q 374 -13 457 -10 q 219 22 290 -17 q 101 143 147 61 q 56 353 54 225 l 56 729 l 306 729 z "},"v":{"ha":738,"x_min":38,"x_max":706,"o":"m 278 832 l 368 529 l 468 844 l 706 772 l 453 14 l 281 14 l 38 760 l 278 832 z "},"w":{"ha":1078,"x_min":33,"x_max":1032,"o":"m 278 835 l 394 425 l 493 676 l 622 674 l 699 460 l 793 785 l 1032 721 l 846 19 l 647 1 l 544 283 l 440 25 l 226 25 l 33 774 l 278 835 z "},"x":{"ha":789,"x_min":35,"x_max":731,"o":"m 56 117 l 240 414 l 35 758 l 250 885 l 388 651 l 515 854 l 731 725 l 533 410 l 708 115 l 493 -14 l 382 171 l 265 -15 l 56 117 z "},"y":{"ha":800,"x_min":18,"x_max":774,"o":"m 774 776 l 596 96 l 594 96 q 581 53 593 89 q 541 -28 568 17 q 471 -117 514 -74 q 365 -183 428 -161 q 215 -196 301 -206 q 18 -125 129 -186 l 139 93 q 215 65 182 69 q 272 67 249 60 q 311 90 296 75 q 336 122 326 106 q 349 149 346 138 q 353 161 353 161 l 353 163 l 356 169 q 231 198 282 176 q 147 250 181 219 q 95 316 114 281 q 68 385 76 351 q 58 446 60 418 q 57 488 56 474 l 56 488 l 56 776 l 304 776 l 304 488 q 319 428 303 451 q 358 401 335 404 q 404 419 381 399 q 442 489 428 439 l 521 790 l 774 776 z "},"z":{"ha":735,"x_min":44,"x_max":688,"o":"m 92 810 l 688 790 l 674 572 l 429 282 l 654 274 l 660 24 l 44 24 l 49 261 l 346 560 l 79 561 l 92 810 z "},"H":{"ha":876,"x_min":50,"x_max":797,"o":"m 300 1006 l 300 413 l 549 413 l 549 1015 l 797 1015 l 797 -40 l 549 -40 l 549 161 l 300 161 l 300 6 l 50 6 l 50 1006 l 300 1006 z "},"~":{"ha":1035,"x_min":57,"x_max":978,"o":"m 57 282 q 70 305 57 282 q 107 362 83 328 q 164 435 131 396 q 238 508 197 475 q 326 563 279 542 q 423 583 372 585 q 528 550 474 581 q 636 449 582 519 q 672 440 651 426 q 710 479 692 454 q 751 553 731 508 l 978 450 q 967 427 978 450 q 935 371 956 404 q 885 299 914 338 q 819 227 856 260 q 738 174 782 194 q 647 156 694 153 q 545 190 599 158 q 436 296 492 222 q 415 310 426 308 q 390 304 403 311 q 365 284 378 297 q 339 256 351 271 q 279 164 310 219 l 57 282 z "},"`":{"ha":326,"x_min":42,"x_max":281,"o":"m 186 1029 l 281 865 l 189 857 l 42 1035 l 186 1029 z "},"´":{"ha":307,"x_min":31,"x_max":271,"o":"m 271 1035 l 122 857 l 31 865 l 125 1029 l 271 1035 z "},"˜":{"ha":432,"x_min":33,"x_max":390,"o":"m 33 925 q 41 939 33 925 q 63 971 49 953 q 94 1008 76 989 q 134 1035 113 1026 q 180 1040 156 1044 q 229 1007 204 1035 q 276 969 263 971 q 308 1011 286 969 l 390 967 q 333 894 363 915 q 269 876 303 874 q 213 898 239 879 q 160 944 186 917 q 150 938 157 947 q 136 917 143 929 q 118 882 128 901 l 33 925 z "},"ˆ":{"ha":340,"x_min":46,"x_max":304,"o":"m 46 910 l 144 1068 l 231 1068 l 304 901 l 217 868 l 179 953 l 128 865 l 46 910 z "},"¨":{"ha":294,"x_min":49,"x_max":236,"o":"m 90 935 q 60 947 72 935 q 49 976 49 958 q 60 1006 49 994 q 90 1018 72 1018 q 119 1006 107 1018 q 131 976 131 994 q 119 947 131 958 q 90 935 107 935 m 194 935 q 165 947 178 935 q 153 976 153 958 q 165 1006 153 994 q 194 1018 178 1018 q 224 1006 211 1018 q 236 976 236 994 q 224 947 236 958 q 194 935 211 935 z "},"˚":{"ha":318,"x_min":43,"x_max":263,"o":"m 153 1083 q 230 1051 197 1083 q 263 974 263 1019 q 230 897 263 929 q 153 864 197 864 q 76 897 108 864 q 43 974 43 929 q 76 1051 43 1019 q 153 1083 108 1083 m 153 1014 q 124 1002 136 1014 q 113 974 113 990 q 124 945 113 957 q 153 933 136 933 q 182 945 171 933 q 193 974 193 957 q 182 1002 193 990 q 153 1014 171 1014 z "},"¸":{"ha":410,"x_min":56,"x_max":354,"o":"m 182 385 l 182 321 q 243 299 213 314 q 299 263 274 285 q 339 213 324 242 q 354 149 354 185 q 324 66 354 97 q 251 17 294 35 q 156 -6 207 0 q 64 -14 106 -12 l 64 113 q 163 126 129 113 q 203 156 197 139 q 186 187 208 172 q 115 204 164 201 l 56 208 l 56 385 l 182 385 z "},"!":{"ha":413,"x_min":75,"x_max":332,"o":"m 326 1040 l 326 304 l 75 304 l 75 1040 l 326 1040 m 206 -4 q 156 6 179 -4 q 115 31 132 15 q 87 69 97 47 q 76 117 76 92 q 87 164 76 142 q 115 203 97 186 q 156 229 132 219 q 206 239 179 239 q 255 229 232 239 q 295 203 278 219 q 322 164 313 186 q 332 117 332 142 q 322 69 332 92 q 295 31 313 47 q 255 6 278 15 q 206 -4 232 -4 z "},"@":{"ha":1106,"x_min":42,"x_max":1051,"o":"m 761 772 l 761 438 q 762 422 761 432 q 765 403 763 413 q 772 388 768 394 q 783 382 776 381 q 825 410 810 385 q 849 469 840 436 q 859 538 857 503 q 860 592 861 572 q 838 701 856 647 q 787 796 819 754 q 708 863 754 838 q 599 890 661 889 q 444 862 513 893 q 327 776 375 831 q 255 650 279 722 q 233 497 231 578 q 276 340 239 404 q 373 239 313 276 q 511 190 433 201 q 675 190 589 178 l 701 4 q 456 8 572 -15 q 251 94 340 32 q 108 255 163 156 q 47 488 53 354 q 80 717 42 608 q 192 908 118 826 q 372 1035 267 989 q 603 1078 476 1081 q 783 1036 703 1075 q 919 933 863 997 q 1008 783 975 868 q 1047 604 1040 697 q 1041 473 1051 542 q 1002 345 1031 404 q 925 244 974 286 q 803 196 876 203 q 727 201 760 192 q 670 226 694 210 q 629 266 646 243 q 601 313 613 289 q 458 329 517 306 q 364 396 400 353 q 323 466 336 428 q 313 544 310 504 q 368 688 315 625 q 488 769 413 742 q 668 772 564 797 l 761 772 m 557 594 q 517 573 532 588 q 499 542 501 558 q 510 513 497 526 q 556 499 524 500 l 557 594 z "},"#":{"ha":1031,"x_min":82,"x_max":946,"o":"m 469 881 l 469 786 l 568 786 l 568 893 l 818 893 l 818 786 l 946 786 l 946 536 l 818 536 l 818 403 l 922 403 l 922 153 l 818 153 l 818 32 l 568 32 l 568 153 l 469 153 l 469 8 l 219 8 l 219 153 l 89 153 l 89 403 l 219 403 l 219 536 l 82 536 l 82 786 l 219 786 l 219 881 l 469 881 m 568 403 l 568 536 l 469 536 l 469 403 l 568 403 z "},"$":{"ha":688,"x_min":44,"x_max":664,"o":"m 499 669 q 399 719 443 708 q 332 723 354 729 q 316 701 310 717 q 369 671 322 685 q 417 657 393 664 q 467 639 440 650 q 635 347 664 558 q 593 241 626 285 q 510 171 560 197 q 490 161 500 165 q 469 153 481 157 l 469 1 l 219 1 l 219 156 q 118 210 164 175 q 44 296 72 244 l 225 419 q 272 371 242 388 q 329 351 301 354 q 385 354 367 346 q 404 377 403 363 q 392 408 406 392 q 350 436 378 425 q 292 455 322 446 q 234 474 263 464 q 180 497 206 485 q 136 526 154 510 q 76 622 90 568 q 72 728 61 675 q 114 828 82 781 q 193 907 146 876 q 206 915 200 911 q 219 922 213 918 l 219 1075 l 469 1075 l 469 944 q 538 924 503 936 q 610 894 572 913 l 499 669 z "},"%":{"ha":1106,"x_min":50,"x_max":1047,"o":"m 832 928 l 479 4 l 244 94 l 599 1017 l 832 928 m 257 1013 q 338 996 300 1013 q 403 951 375 979 q 447 886 431 924 q 463 806 463 849 q 447 725 463 763 q 403 660 431 688 q 338 616 375 632 q 257 600 300 600 q 176 616 214 600 q 110 660 139 632 q 66 725 82 688 q 50 806 50 763 q 66 886 50 849 q 110 951 82 924 q 176 996 139 979 q 257 1013 214 1013 m 257 881 q 203 859 225 881 q 181 806 181 838 q 203 751 181 774 q 257 729 225 729 q 310 751 289 729 q 332 806 332 774 q 310 859 332 838 q 257 881 289 881 m 840 415 q 921 399 883 415 q 987 354 958 382 q 1031 289 1015 326 q 1047 208 1047 251 q 1031 128 1047 165 q 987 63 1015 90 q 921 19 958 35 q 840 3 883 3 q 760 19 797 3 q 694 63 722 35 q 649 128 665 90 q 633 208 633 165 q 649 289 633 251 q 694 354 665 326 q 760 399 722 382 q 840 415 797 415 m 840 285 q 787 263 808 285 q 765 208 765 240 q 787 154 765 176 q 840 132 808 132 q 894 154 872 132 q 917 208 917 176 q 894 263 917 240 q 840 285 872 285 z "},"^":{"ha":514,"x_min":68,"x_max":453,"o":"m 68 754 l 219 1042 l 326 1042 l 453 740 l 339 692 l 267 864 l 178 694 l 68 754 z "},"&":{"ha":967,"x_min":50,"x_max":918,"o":"m 508 817 q 481 821 496 819 q 451 823 468 822 q 414 824 433 824 q 326 795 360 821 q 288 739 293 769 q 308 685 283 708 q 396 667 333 663 l 524 676 l 518 538 l 917 543 l 918 313 l 822 311 q 772 183 808 242 q 683 82 736 125 q 565 14 631 39 q 426 -12 499 -11 q 276 13 346 -17 q 157 94 207 42 q 81 220 107 147 q 63 378 56 293 q 83 469 67 429 q 124 539 100 508 q 74 621 93 575 q 53 718 56 667 q 78 848 50 788 q 154 953 106 908 q 268 1024 203 997 q 406 1054 333 1051 q 460 1054 435 1056 q 506 1050 486 1053 q 549 1044 529 1047 l 508 817 m 500 432 l 406 429 q 324 403 350 429 q 293 344 297 378 q 304 278 289 311 q 349 231 319 246 q 410 217 378 217 q 473 227 443 217 q 530 258 503 238 q 576 308 557 279 l 501 307 l 500 432 z "},"*":{"ha":363,"x_min":50,"x_max":311,"o":"m 181 836 l 118 754 l 67 793 l 131 874 l 50 910 l 76 967 l 149 933 l 149 1033 l 151 1033 l 211 1033 l 214 1033 l 214 933 l 286 967 l 311 910 l 232 874 l 293 793 l 244 754 l 181 836 z "},"(":{"ha":517,"x_min":47,"x_max":463,"o":"m 463 990 q 438 942 463 989 q 383 817 413 896 q 327 635 353 739 q 301 415 301 531 q 333 180 300 300 q 453 -51 365 60 l 257 -206 q 126 17 172 -97 q 64 245 81 132 q 54 467 47 358 q 81 672 61 575 q 130 849 101 768 q 184 990 158 931 q 228 1083 210 1050 q 247 1117 247 1117 l 463 990 z "},"[":{"ha":489,"x_min":64,"x_max":428,"o":"m 428 825 l 315 825 l 315 64 l 410 64 l 410 -186 l 64 -186 l 64 1075 l 428 1075 l 428 825 z "},"{":{"ha":594,"x_min":58,"x_max":539,"o":"m 517 871 q 455 864 472 876 q 434 828 438 851 q 433 771 431 804 q 433 703 436 738 q 411 565 428 633 q 356 442 394 496 q 411 318 394 388 q 433 181 428 249 q 433 112 436 144 q 434 55 431 79 q 455 18 438 31 q 517 13 472 6 l 539 -193 q 514 -196 539 -193 q 451 -197 489 -199 q 369 -186 413 -194 q 286 -155 325 -178 q 220 -92 247 -132 q 190 13 193 -51 q 189 108 188 56 q 181 208 190 161 q 144 287 171 254 q 58 324 117 319 l 58 558 q 144 597 117 563 q 181 677 171 631 q 189 776 190 724 q 190 872 188 829 q 220 976 193 936 q 286 1039 247 1017 q 369 1070 325 1061 q 451 1081 413 1079 q 514 1079 489 1082 q 539 1076 539 1076 l 517 871 z "},"<":{"ha":729,"x_min":67,"x_max":663,"o":"m 663 582 l 399 443 l 651 278 l 514 68 l 67 361 l 67 550 l 544 804 l 663 582 z "},";":{"ha":440,"x_min":61,"x_max":369,"o":"m 88 278 l 336 278 l 175 -39 l 61 -39 l 88 278 m 229 450 q 174 461 200 450 q 130 491 149 472 q 100 535 111 510 q 89 589 89 560 q 100 644 89 618 q 130 688 111 669 q 174 718 149 707 q 229 729 200 729 q 284 718 258 729 q 328 688 310 707 q 358 644 347 669 q 369 589 369 618 q 358 535 369 560 q 328 491 347 510 q 284 461 310 472 q 229 450 258 450 z "},"?":{"ha":725,"x_min":43,"x_max":665,"o":"m 43 1039 q 226 1051 143 1053 q 376 1033 310 1049 q 493 992 443 1018 q 578 932 543 965 q 661 768 650 861 q 654 680 665 724 q 619 596 643 636 q 508 482 581 533 q 331 407 435 431 l 331 321 l 81 321 l 81 624 l 201 628 q 356 663 308 632 q 397 730 403 694 q 339 792 392 765 q 194 815 286 819 q 140 812 168 814 q 81 806 113 810 l 43 1039 m 192 -6 q 138 5 163 -6 q 94 33 113 15 q 64 74 75 50 q 53 126 53 99 q 64 178 53 154 q 94 221 75 203 q 138 249 113 239 q 192 260 163 260 q 247 249 221 260 q 291 221 272 239 q 321 178 310 203 q 332 126 332 154 q 321 74 332 99 q 291 33 310 50 q 247 5 272 15 q 192 -6 221 -6 z "},"/":{"ha":597,"x_min":40,"x_max":568,"o":"m 568 982 l 217 17 l 40 81 l 392 1046 l 568 982 z "},"-":{"ha":594,"x_min":60,"x_max":531,"o":"m 60 500 l 531 500 l 531 311 l 60 311 l 60 500 z "},"+":{"ha":689,"x_min":61,"x_max":633,"o":"m 61 489 l 253 489 l 253 682 l 442 682 l 442 489 l 633 489 l 633 303 l 442 303 l 442 135 l 253 135 l 253 303 l 61 303 l 61 489 z "},"×":{"ha":646,"x_min":56,"x_max":593,"o":"m 56 264 l 192 400 l 56 536 l 188 669 l 325 532 l 461 668 l 593 536 l 457 400 l 575 282 l 443 149 l 325 267 l 189 131 l 56 264 z "},"=":{"ha":574,"x_min":57,"x_max":518,"o":"m 57 621 l 518 621 l 518 432 l 57 432 l 57 621 m 57 382 l 518 382 l 518 194 l 57 194 l 57 382 z "},"_":{"ha":817,"x_min":51,"x_max":760,"o":"m 51 188 l 760 188 l 760 0 l 51 0 l 51 188 z "},"÷":{"ha":581,"x_min":50,"x_max":522,"o":"m 50 500 l 522 500 l 522 311 l 50 311 l 50 500 m 288 532 q 222 559 249 532 q 194 624 194 586 q 222 689 194 663 q 288 715 249 715 q 351 689 325 715 q 378 624 378 663 q 351 559 378 586 q 288 532 325 532 m 288 90 q 222 117 249 90 q 194 182 194 144 q 222 247 194 221 q 288 274 249 274 q 351 247 325 274 q 378 182 378 221 q 351 117 378 144 q 288 90 325 90 z "},"ß":{"ha":751,"x_min":54,"x_max":704,"o":"m 54 -61 l 54 689 l 54 696 q 75 812 58 760 q 118 903 92 864 q 179 969 144 942 q 254 1013 214 996 q 328 1032 290 1028 q 404 1033 367 1036 q 543 981 478 1022 q 627 894 593 947 q 675 781 661 840 q 681 660 689 721 q 635 551 672 600 q 690 438 675 497 q 697 322 704 379 q 663 213 690 265 q 591 119 635 160 q 489 51 547 78 q 363 18 431 24 l 340 268 q 422 301 396 274 q 447 362 447 329 q 426 421 447 394 q 367 450 404 447 l 367 604 q 417 627 399 607 q 442 674 436 647 q 438 729 447 701 q 403 774 428 757 q 374 783 392 781 q 347 781 361 785 q 319 752 332 774 q 304 689 307 731 l 304 658 l 304 -61 l 54 -61 z "},"€":{"ha":503,"x_min":42,"x_max":465,"o":"m 465 703 q 428 688 446 699 q 394 660 413 678 q 363 613 376 642 l 457 613 l 457 481 l 338 481 l 338 476 l 338 464 l 457 464 l 457 329 l 361 329 q 373 304 365 318 q 391 278 381 290 q 414 256 401 265 q 440 244 426 246 l 440 -6 q 401 -1 425 -6 q 347 15 376 3 q 285 45 317 26 q 222 93 253 64 q 151 190 183 132 q 101 329 118 247 l 42 329 l 42 464 l 88 464 l 88 476 l 88 481 l 42 481 l 42 613 l 101 613 q 147 740 117 686 q 213 831 176 794 q 286 891 249 868 q 354 927 324 914 q 405 944 385 940 q 425 949 425 949 l 465 703 z "},"£":{"ha":729,"x_min":53,"x_max":674,"o":"m 508 726 q 471 724 486 731 q 444 698 456 717 q 431 638 433 679 q 429 596 429 617 q 429 554 429 575 l 594 554 l 594 397 l 428 397 q 426 323 426 360 q 421 253 425 286 l 674 253 l 674 3 q 475 2 557 3 q 335 1 393 1 q 239 0 278 0 q 170 0 200 0 q 113 1 140 0 q 53 3 86 1 l 53 253 l 171 253 q 176 304 174 265 q 179 397 178 343 l 101 397 l 101 554 l 179 554 q 181 601 181 578 q 182 649 181 625 q 217 821 186 756 q 292 922 249 886 q 385 969 335 957 q 476 980 435 981 q 547 973 518 979 q 575 967 575 967 l 508 726 z "},"¡":{"ha":413,"x_min":75,"x_max":332,"o":"m 326 -101 l 326 635 l 75 635 l 75 -101 l 326 -101 m 206 943 q 156 933 179 943 q 115 908 132 924 q 87 869 97 892 q 76 822 76 847 q 87 775 76 797 q 115 736 97 753 q 156 710 132 719 q 206 700 179 700 q 255 710 232 700 q 295 736 278 719 q 322 775 313 753 q 332 822 332 797 q 322 869 332 847 q 295 908 313 892 q 255 933 278 924 q 206 943 232 943 z "},"¿":{"ha":725,"x_min":44,"x_max":667,"o":"m 667 33 q 483 22 567 20 q 333 39 400 24 q 217 81 267 54 q 132 140 167 107 q 49 304 60 211 q 56 392 44 349 q 90 476 67 436 q 202 590 129 539 q 379 665 275 642 l 379 751 l 629 751 l 629 449 l 508 444 q 354 409 401 440 q 313 342 307 378 q 371 280 318 307 q 515 257 424 253 q 569 260 542 258 q 629 267 597 263 l 667 33 m 518 1078 q 572 1067 547 1078 q 616 1040 597 1057 q 646 998 635 1022 q 657 946 657 974 q 646 894 657 918 q 616 851 635 869 q 572 823 597 833 q 518 813 547 813 q 463 823 489 813 q 419 851 438 833 q 389 894 400 869 q 378 946 378 918 q 389 998 378 974 q 419 1040 400 1022 q 463 1067 438 1057 q 518 1078 489 1078 z "},")":{"ha":517,"x_min":40,"x_max":456,"o":"m 256 1117 q 274 1083 256 1117 q 319 990 293 1050 q 373 849 344 931 q 422 672 401 768 q 449 467 442 575 q 439 245 456 358 q 376 17 422 132 q 246 -206 331 -97 l 50 -51 q 170 180 138 60 q 202 415 203 300 q 176 635 201 531 q 120 817 150 739 q 65 942 90 896 q 40 990 40 989 l 256 1117 z "},"]":{"ha":489,"x_min":60,"x_max":424,"o":"m 60 1075 l 424 1075 l 424 -186 l 78 -186 l 78 64 l 172 64 l 172 825 l 60 825 l 60 1075 z "},">":{"ha":729,"x_min":67,"x_max":663,"o":"m 185 804 l 663 550 l 663 361 l 215 68 l 78 278 l 331 443 l 67 582 l 185 804 z "},"}":{"ha":594,"x_min":58,"x_max":539,"o":"m 58 1076 q 83 1079 58 1076 q 147 1081 108 1082 q 228 1070 185 1079 q 311 1039 272 1061 q 377 976 350 1017 q 407 872 404 936 q 408 776 410 829 q 417 677 407 724 q 453 597 426 631 q 539 558 481 563 l 539 324 q 453 287 481 319 q 417 208 426 254 q 408 108 407 161 q 407 13 410 56 q 377 -92 404 -51 q 311 -155 350 -132 q 228 -186 272 -178 q 147 -197 185 -194 q 83 -196 108 -199 q 58 -193 58 -193 l 81 13 q 142 18 125 6 q 163 55 160 31 q 164 112 167 79 q 164 181 161 144 q 186 318 169 249 q 242 442 203 388 q 186 565 203 496 q 164 703 169 633 q 164 771 161 738 q 163 828 167 804 q 142 864 160 851 q 81 871 125 876 l 58 1076 z "},"\\":{"ha":597,"x_min":40,"x_max":568,"o":"m 217 1046 l 568 81 l 392 17 l 40 982 l 217 1046 z "},"‰":{"ha":1556,"x_min":50,"x_max":1503,"o":"m 832 928 l 479 4 l 244 94 l 599 1017 l 832 928 m 257 1013 q 338 996 300 1013 q 403 951 375 979 q 447 886 431 924 q 463 806 463 849 q 447 725 463 763 q 403 660 431 688 q 338 616 375 632 q 257 600 300 600 q 176 616 214 600 q 110 660 139 632 q 66 725 82 688 q 50 806 50 763 q 66 886 50 849 q 110 951 82 924 q 176 996 139 979 q 257 1013 214 1013 m 257 881 q 203 859 225 881 q 181 806 181 838 q 203 751 181 774 q 257 729 225 729 q 310 751 289 729 q 332 806 332 774 q 310 859 332 838 q 257 881 289 881 m 840 415 q 921 399 883 415 q 987 354 958 382 q 1031 289 1015 326 q 1047 208 1047 251 q 1031 128 1047 165 q 987 63 1015 90 q 921 19 958 35 q 840 3 883 3 q 760 19 797 3 q 694 63 722 35 q 649 128 665 90 q 633 208 633 165 q 649 289 633 251 q 694 354 665 326 q 760 399 722 382 q 840 415 797 415 m 840 285 q 787 263 808 285 q 765 208 765 240 q 787 154 765 176 q 840 132 808 132 q 894 154 872 132 q 917 208 917 176 q 894 263 917 240 q 840 285 872 285 m 1296 415 q 1376 399 1339 415 q 1442 354 1414 382 q 1487 289 1471 326 q 1503 208 1503 251 q 1487 128 1503 165 q 1442 63 1471 90 q 1376 19 1414 35 q 1296 3 1339 3 q 1215 19 1253 3 q 1149 63 1178 35 q 1105 128 1121 90 q 1089 208 1089 165 q 1105 289 1089 251 q 1149 354 1121 326 q 1215 399 1178 382 q 1296 415 1253 415 m 1296 285 q 1242 263 1264 285 q 1221 208 1221 240 q 1242 154 1221 176 q 1296 132 1264 132 q 1350 154 1328 132 q 1372 208 1372 176 q 1350 263 1372 240 q 1296 285 1328 285 z "},":":{"ha":440,"x_min":89,"x_max":369,"o":"m 229 450 q 174 461 200 450 q 130 491 149 472 q 100 535 111 510 q 89 589 89 560 q 100 644 89 618 q 130 688 111 669 q 174 718 149 707 q 229 729 200 729 q 284 718 258 729 q 328 688 310 707 q 358 644 347 669 q 369 589 369 618 q 358 535 369 560 q 328 491 347 510 q 284 461 310 472 q 229 450 258 450 m 229 58 q 174 69 200 58 q 130 99 149 81 q 100 143 111 118 q 89 197 89 168 q 100 252 89 226 q 130 297 111 278 q 174 326 149 315 q 229 338 200 338 q 284 326 258 338 q 328 297 310 315 q 358 252 347 278 q 369 197 369 226 q 358 143 369 168 q 328 99 347 118 q 284 69 310 81 q 229 58 258 58 z "},",":{"ha":401,"x_min":61,"x_max":336,"o":"m 88 214 l 336 214 l 175 -103 l 61 -103 l 88 214 z "},"‚":{"ha":401,"x_min":61,"x_max":336,"o":"m 88 214 l 336 214 l 175 -103 l 61 -103 l 88 214 z "},"„":{"ha":690,"x_min":61,"x_max":636,"o":"m 88 214 l 336 214 l 175 -103 l 61 -103 l 88 214 m 388 214 l 636 214 l 475 -103 l 361 -103 l 388 214 z "},".":{"ha":464,"x_min":89,"x_max":369,"o":"m 229 8 q 174 19 200 8 q 130 49 149 31 q 100 93 111 68 q 89 147 89 118 q 100 202 89 176 q 130 247 111 228 q 174 276 149 265 q 229 288 200 288 q 284 276 258 288 q 328 247 310 265 q 358 202 347 228 q 369 147 369 176 q 358 93 369 118 q 328 49 347 68 q 284 19 310 31 q 229 8 258 8 z "},"…":{"ha":1051,"x_min":89,"x_max":974,"o":"m 192 8 q 119 38 149 8 q 89 110 89 68 q 119 183 89 153 q 192 213 149 213 q 265 183 235 213 q 294 110 294 153 q 265 38 294 68 q 192 8 235 8 m 532 8 q 459 38 489 8 q 429 110 429 68 q 459 183 429 153 q 532 213 489 213 q 605 183 575 213 q 635 110 635 153 q 605 38 635 68 q 532 8 575 8 m 871 8 q 798 38 828 8 q 768 110 768 68 q 798 183 768 153 q 871 213 828 213 q 944 183 914 213 q 974 110 974 153 q 944 38 974 68 q 871 8 914 8 z "},"ı":{"ha":374,"x_min":60,"x_max":310,"o":"m 310 751 l 310 43 l 60 43 l 60 751 l 310 751 z "},"™":{"ha":728,"x_min":38,"x_max":675,"o":"m 207 960 l 207 674 l 115 674 l 115 960 l 38 961 l 38 1053 l 272 1051 l 272 958 l 207 960 m 299 678 l 322 1050 l 425 1047 l 492 844 l 551 1049 l 650 1057 l 675 685 l 583 679 l 575 803 l 524 675 l 464 675 l 400 829 l 390 674 l 299 678 z "},"±":{"ha":689,"x_min":60,"x_max":651,"o":"m 61 489 l 253 489 l 253 682 l 442 682 l 442 489 l 633 489 l 633 303 l 442 303 l 442 135 l 253 135 l 253 303 l 61 303 l 61 489 m 60 100 l 651 100 l 651 11 l 60 11 l 60 100 z "},"¥":{"ha":936,"x_min":33,"x_max":904,"o":"m 249 1053 l 476 676 l 685 1058 l 904 939 l 661 493 l 769 493 l 769 319 l 603 319 l 603 268 l 769 268 l 769 94 l 601 94 l 601 4 l 353 6 l 353 94 l 168 94 l 168 268 l 354 268 l 354 319 l 168 319 l 168 493 l 294 493 l 33 921 l 249 1053 z "},"¢":{"ha":810,"x_min":44,"x_max":750,"o":"m 486 613 q 465 650 485 638 q 419 660 446 663 q 364 640 392 658 q 318 582 336 621 q 305 542 310 565 q 299 491 300 518 q 299 436 297 464 q 308 383 301 408 q 352 313 321 335 q 416 291 383 290 q 476 312 449 292 q 507 368 503 332 l 750 353 q 690 196 746 260 q 553 101 635 132 l 553 1 l 304 1 l 304 88 q 165 167 221 110 q 79 298 108 224 q 47 456 50 372 q 67 617 44 540 q 140 756 90 694 q 263 849 189 818 q 304 864 282 857 l 304 989 l 553 989 l 553 863 q 664 794 617 840 q 725 675 711 747 l 486 613 z "},"|":{"ha":365,"x_min":54,"x_max":304,"o":"m 304 1036 l 304 -44 l 54 -44 l 54 1036 l 304 1036 z "},"‹":{"ha":729,"x_min":67,"x_max":663,"o":"m 663 582 l 399 443 l 651 278 l 514 68 l 67 361 l 67 550 l 544 804 l 663 582 z "},"«":{"ha":1253,"x_min":67,"x_max":1201,"o":"m 663 582 l 399 443 l 651 278 l 514 68 l 67 361 l 67 550 l 544 804 l 663 582 m 1201 563 l 938 424 l 1190 258 l 1053 49 l 606 342 l 606 531 l 1083 785 l 1201 563 z "},"›":{"ha":729,"x_min":67,"x_max":663,"o":"m 185 804 l 663 550 l 663 361 l 215 68 l 78 278 l 331 443 l 67 582 l 185 804 z "},"»":{"ha":1272,"x_min":56,"x_max":1206,"o":"m 728 804 l 1206 550 l 1206 361 l 758 68 l 621 278 l 874 443 l 610 582 l 728 804 m 174 772 l 651 518 l 651 329 l 204 36 l 67 246 l 319 411 l 56 550 l 174 772 z "},"Æ":{"ha":1075,"x_min":7,"x_max":1024,"o":"m 7 51 l 267 1017 l 1024 1006 l 1024 758 l 694 761 l 694 582 l 897 582 l 897 332 l 694 332 l 694 238 l 1015 238 l 1015 -11 l 443 -11 l 443 183 l 301 183 l 247 -14 l 7 51 m 443 433 l 443 710 l 368 433 l 443 433 z "},"Œ":{"ha":1158,"x_min":43,"x_max":1107,"o":"m 1107 758 l 778 761 l 778 582 l 981 582 l 981 332 l 778 332 l 778 238 l 1099 238 l 1099 -11 l 526 -11 l 526 -8 l 522 -8 q 333 33 421 -8 q 179 149 246 75 q 80 308 117 217 q 43 501 43 399 q 80 696 43 606 q 179 857 117 786 q 333 972 246 931 q 522 1013 421 1013 q 581 1008 551 1013 l 1107 1006 l 1107 758 m 368 311 q 438 258 397 276 q 522 239 478 239 l 526 239 l 526 765 l 522 765 q 438 747 478 765 q 368 694 397 728 q 316 609 335 658 q 297 501 297 560 q 316 396 297 444 q 368 311 335 347 z "},"æ":{"ha":1190,"x_min":39,"x_max":1133,"o":"m 704 726 q 849 760 774 761 q 988 717 925 758 q 1091 591 1050 675 q 1133 376 1132 507 q 1132 319 1133 349 q 1125 260 1131 290 l 725 260 q 759 212 733 226 q 814 197 785 197 q 867 210 843 197 q 896 244 892 222 l 1108 199 q 1051 75 1093 125 q 951 -1 1008 25 q 828 -29 894 -28 q 701 -6 763 -31 l 701 -10 l 451 -10 l 451 14 q 293 14 364 -1 q 169 69 222 29 q 71 201 103 121 q 40 365 39 281 q 76 528 42 450 q 174 654 110 607 q 293 716 228 694 q 428 745 358 738 q 568 748 497 753 q 704 732 639 743 l 704 726 m 435 483 q 335 465 372 485 q 283 417 299 446 q 272 354 268 388 q 297 297 276 321 q 354 262 318 272 q 438 268 390 251 l 435 483 m 938 439 q 909 521 939 490 q 840 553 879 551 q 765 527 801 556 q 721 435 729 499 l 938 439 z "},"œ":{"ha":1310,"x_min":50,"x_max":1253,"o":"m 438 778 q 596 743 524 778 q 721 650 668 708 q 824 726 767 699 q 940 759 881 754 q 1054 744 999 764 q 1153 677 1110 724 q 1224 556 1197 631 q 1253 376 1251 481 q 1251 319 1253 349 q 1244 260 1250 290 l 844 260 q 878 212 853 226 q 933 197 904 197 q 987 210 963 197 q 1015 244 1011 222 l 1228 199 q 1182 90 1215 136 q 1102 15 1149 43 q 1001 -24 1056 -14 q 890 -26 946 -35 q 783 10 835 -18 q 693 86 732 38 q 575 12 640 39 q 438 -15 510 -15 q 283 19 354 -15 q 160 109 211 53 q 79 237 108 165 q 50 383 50 308 q 81 536 50 464 q 166 662 113 608 q 290 747 219 715 q 438 778 360 778 m 438 529 q 383 517 408 529 q 339 483 357 504 q 310 436 321 463 q 300 383 300 410 q 310 328 300 354 q 340 281 321 301 q 383 248 358 260 q 438 236 408 236 q 494 249 468 236 q 538 282 519 261 q 566 329 556 303 q 576 383 576 356 q 565 439 576 413 q 535 485 554 465 q 491 517 517 506 q 438 529 465 529 m 1057 439 q 1028 521 1058 490 q 960 553 999 551 q 885 527 921 556 q 840 435 849 499 l 1057 439 z "},"Ø":{"ha":1047,"x_min":44,"x_max":994,"o":"m 519 1053 q 708 1011 621 1053 q 863 894 796 969 q 960 731 925 824 q 994 532 994 639 q 960 335 994 428 q 863 172 925 242 q 708 55 796 97 q 519 13 621 13 q 333 55 419 13 q 179 172 246 97 q 81 335 117 242 q 44 532 44 428 q 81 731 44 639 q 179 894 117 824 q 333 1011 246 969 q 519 1053 419 1053 m 296 532 q 315 424 296 474 q 367 338 333 375 q 368 336 367 336 l 532 801 l 519 801 q 435 782 475 801 q 367 729 396 763 q 315 641 333 692 q 296 532 296 590 m 744 532 q 732 623 744 581 q 696 700 719 665 l 542 265 q 614 288 581 269 q 675 338 647 307 q 726 424 707 375 q 744 532 744 474 z "},"ø":{"ha":881,"x_min":54,"x_max":831,"o":"m 710 874 l 661 740 q 785 597 740 683 q 831 417 831 511 q 799 263 831 335 q 715 136 768 190 q 590 50 661 82 q 442 18 519 18 q 420 19 431 18 q 399 21 410 19 l 358 -92 l 182 -28 l 224 89 q 99 233 144 146 q 54 417 54 321 q 85 569 54 497 q 170 695 117 642 q 294 780 224 749 q 442 811 364 811 q 464 810 453 811 q 486 808 475 810 l 533 938 l 710 874 m 304 417 q 319 350 304 383 l 393 553 q 328 497 353 536 q 304 417 304 458 m 581 417 q 565 479 581 449 l 493 279 q 557 335 533 297 q 581 417 581 372 z "},"ð":{"ha":799,"x_min":57,"x_max":804,"o":"m 333 1013 l 485 1013 l 485 1081 l 733 1081 l 733 1013 l 804 1013 l 804 903 l 733 903 l 733 -22 l 485 -22 q 297 8 378 -26 q 163 103 217 43 q 83 240 110 163 q 58 399 57 318 q 85 558 58 481 q 165 696 111 636 q 298 790 218 756 q 485 821 378 825 l 485 903 l 333 903 l 333 1013 m 485 553 q 393 531 429 554 q 339 472 357 507 q 322 394 321 436 q 340 318 322 353 q 394 263 358 283 q 485 246 431 242 l 485 553 z "},"Ð":{"ha":851,"x_min":57,"x_max":797,"o":"m 307 1028 q 398 1010 340 1025 q 519 962 456 994 q 643 876 582 929 q 744 746 704 824 q 784 643 771 697 q 797 535 797 589 q 765 365 797 440 q 681 233 732 290 q 571 136 631 176 q 457 71 511 96 q 361 34 403 46 q 307 24 319 22 l 57 24 l 57 1028 l 307 1028 m 307 613 l 454 613 l 454 461 l 307 461 l 307 300 q 431 344 379 308 q 510 427 482 379 q 541 529 538 475 q 520 630 544 583 q 443 708 496 676 q 307 744 390 740 l 307 613 z "},"Ç":{"ha":908,"x_min":39,"x_max":860,"o":"m 624 701 q 615 715 624 701 q 587 744 607 729 q 534 769 567 760 q 453 774 501 779 q 351 717 388 765 q 302 605 315 669 q 296 472 289 540 q 325 354 303 403 q 383 275 347 306 q 468 246 419 244 q 548 269 519 247 q 590 317 576 292 q 607 365 604 343 q 610 386 610 386 l 860 375 q 857 348 860 375 q 843 280 854 321 q 808 190 832 239 q 743 100 785 142 q 638 29 701 58 q 483 -3 574 0 l 483 -24 q 526 -39 504 -29 q 565 -65 547 -49 q 593 -101 582 -81 q 604 -147 604 -121 q 583 -206 604 -183 q 531 -242 563 -229 q 465 -259 500 -254 q 400 -264 429 -264 l 400 -174 q 470 -164 446 -174 q 499 -142 494 -154 q 487 -120 503 -131 q 436 -107 471 -110 l 394 -104 l 394 1 q 213 88 288 19 q 96 251 139 156 q 51 404 64 322 q 45 568 39 486 q 77 726 51 650 q 149 865 103 803 q 264 969 196 928 q 421 1022 332 1011 q 561 1020 499 1032 q 671 985 624 1008 q 752 931 718 961 q 808 872 786 900 q 839 826 829 844 q 849 807 849 807 l 624 701 z "},"ç":{"ha":810,"x_min":42,"x_max":754,"o":"m 489 558 q 468 599 488 585 q 422 610 449 613 q 366 588 394 608 q 319 524 338 567 q 306 479 311 506 q 300 424 301 453 q 301 364 299 394 q 310 307 303 333 q 353 229 322 253 q 418 206 385 206 q 478 229 451 207 q 510 290 506 251 l 754 274 q 724 151 751 206 q 651 58 696 96 q 550 -3 607 19 q 431 -29 493 -25 l 431 -46 q 473 -61 451 -51 q 512 -87 494 -71 q 540 -123 529 -103 q 551 -169 551 -143 q 531 -228 551 -206 q 478 -264 510 -251 q 412 -281 447 -276 q 347 -286 376 -286 l 347 -196 q 417 -186 393 -196 q 446 -165 442 -176 q 434 -142 450 -153 q 383 -129 418 -132 l 342 -126 l 342 -25 q 185 51 249 -8 q 88 191 122 110 q 47 367 53 272 q 64 551 42 463 q 136 710 86 639 q 264 817 186 782 q 408 850 331 847 q 556 826 486 853 q 675 741 625 799 q 735 594 725 683 l 489 558 z "},"À":{"ha":844,"x_min":11,"x_max":838,"o":"m 11 51 l 288 1064 l 629 1064 l 838 78 l 596 28 l 561 183 l 306 183 l 251 -14 l 11 51 m 508 433 l 449 715 l 372 433 l 508 433 m 447 1307 l 542 1143 l 450 1135 l 303 1313 l 447 1307 z "},"Á":{"ha":844,"x_min":11,"x_max":838,"o":"m 11 51 l 288 1064 l 629 1064 l 838 78 l 596 28 l 561 183 l 306 183 l 251 -14 l 11 51 m 508 433 l 449 715 l 372 433 l 508 433 m 610 1313 l 461 1135 l 369 1143 l 464 1307 l 610 1313 z "},"Â":{"ha":844,"x_min":11,"x_max":838,"o":"m 11 51 l 288 1064 l 629 1064 l 838 78 l 596 28 l 561 183 l 306 183 l 251 -14 l 11 51 m 508 433 l 449 715 l 372 433 l 508 433 m 356 1188 l 454 1346 l 540 1346 l 614 1179 l 526 1146 l 489 1231 l 438 1143 l 356 1188 z "},"Ã":{"ha":844,"x_min":11,"x_max":838,"o":"m 11 51 l 288 1064 l 629 1064 l 838 78 l 596 28 l 561 183 l 306 183 l 251 -14 l 11 51 m 508 433 l 449 715 l 372 433 l 508 433 m 288 1203 q 295 1217 288 1203 q 317 1249 303 1231 q 349 1285 331 1267 q 388 1313 367 1304 q 434 1317 410 1322 q 483 1285 458 1313 q 531 1247 517 1249 q 563 1289 540 1247 l 644 1244 q 587 1172 617 1193 q 524 1154 557 1151 q 467 1176 493 1157 q 414 1222 440 1194 q 404 1216 411 1225 q 390 1194 397 1207 q 372 1160 382 1179 l 288 1203 z "},"Ä":{"ha":844,"x_min":11,"x_max":838,"o":"m 11 51 l 288 1064 l 629 1064 l 838 78 l 596 28 l 561 183 l 306 183 l 251 -14 l 11 51 m 508 433 l 449 715 l 372 433 l 508 433 m 408 1153 q 378 1165 390 1153 q 367 1194 367 1176 q 378 1224 367 1213 q 408 1236 390 1236 q 437 1224 425 1236 q 449 1194 449 1213 q 437 1165 449 1176 q 408 1153 425 1153 m 513 1153 q 483 1165 496 1153 q 471 1194 471 1176 q 483 1224 471 1213 q 513 1236 496 1236 q 542 1224 529 1236 q 554 1194 554 1213 q 542 1165 554 1176 q 513 1153 529 1153 z "},"Å":{"ha":844,"x_min":11,"x_max":838,"o":"m 11 51 l 288 1064 l 629 1064 l 838 78 l 596 28 l 561 183 l 306 183 l 251 -14 l 11 51 m 508 433 l 449 715 l 372 433 l 508 433 m 461 1342 q 538 1310 506 1342 q 571 1232 571 1278 q 538 1155 571 1188 q 461 1122 506 1122 q 384 1155 417 1122 q 351 1232 351 1188 q 384 1310 351 1278 q 461 1342 417 1342 m 461 1272 q 433 1260 444 1272 q 421 1232 421 1249 q 433 1203 421 1215 q 461 1192 444 1192 q 490 1203 479 1192 q 501 1232 501 1215 q 490 1260 501 1249 q 461 1272 479 1272 z "},"È":{"ha":685,"x_min":53,"x_max":633,"o":"m 633 758 l 304 761 l 304 582 l 507 582 l 507 332 l 304 332 l 304 238 l 625 238 l 625 -11 l 53 -11 l 53 1010 l 633 1006 l 633 758 m 367 1272 l 461 1108 l 369 1100 l 222 1278 l 367 1272 z "},"É":{"ha":685,"x_min":53,"x_max":633,"o":"m 633 758 l 304 761 l 304 582 l 507 582 l 507 332 l 304 332 l 304 238 l 625 238 l 625 -11 l 53 -11 l 53 1010 l 633 1006 l 633 758 m 465 1269 l 317 1092 l 225 1100 l 319 1264 l 465 1269 z "},"Ê":{"ha":685,"x_min":53,"x_max":633,"o":"m 633 758 l 304 761 l 304 582 l 507 582 l 507 332 l 304 332 l 304 238 l 625 238 l 625 -11 l 53 -11 l 53 1010 l 633 1006 l 633 758 m 231 1139 l 329 1297 l 415 1297 l 489 1131 l 401 1097 l 364 1182 l 313 1094 l 231 1139 z "},"Ë":{"ha":685,"x_min":53,"x_max":633,"o":"m 633 758 l 304 761 l 304 582 l 507 582 l 507 332 l 304 332 l 304 238 l 625 238 l 625 -11 l 53 -11 l 53 1010 l 633 1006 l 633 758 m 293 1089 q 263 1101 275 1089 q 251 1131 251 1113 q 263 1160 251 1149 q 293 1172 275 1172 q 322 1160 310 1172 q 333 1131 333 1149 q 322 1101 333 1113 q 293 1089 310 1089 m 397 1089 q 368 1101 381 1089 q 356 1131 356 1113 q 368 1160 356 1149 q 397 1172 381 1172 q 426 1160 414 1172 q 439 1131 439 1149 q 426 1101 439 1113 q 397 1089 414 1089 z "},"Ì":{"ha":365,"x_min":54,"x_max":304,"o":"m 304 972 l 304 -3 l 54 -3 l 54 972 l 304 972 m 201 1235 l 296 1071 l 204 1063 l 57 1240 l 201 1235 z "},"Í":{"ha":365,"x_min":54,"x_max":354,"o":"m 304 972 l 304 -3 l 54 -3 l 54 972 l 304 972 m 354 1229 l 206 1051 l 114 1060 l 208 1224 l 354 1229 z "},"Î":{"ha":365,"x_min":54,"x_max":324,"o":"m 304 972 l 304 -3 l 54 -3 l 54 972 l 304 972 m 65 1094 l 164 1253 l 250 1253 l 324 1086 l 236 1053 l 199 1138 l 147 1050 l 65 1094 z "},"Ï":{"ha":365,"x_min":54,"x_max":304,"o":"m 304 972 l 304 -3 l 54 -3 l 54 972 l 304 972 m 136 1043 q 106 1055 118 1043 q 94 1085 94 1067 q 106 1115 94 1103 q 136 1126 118 1126 q 165 1115 153 1126 q 176 1085 176 1103 q 165 1055 176 1067 q 136 1043 153 1043 m 240 1043 q 211 1055 224 1043 q 199 1085 199 1067 q 211 1115 199 1103 q 240 1126 224 1126 q 269 1115 257 1126 q 282 1085 282 1103 q 269 1055 282 1067 q 240 1043 257 1043 z "},"Ÿ":{"ha":936,"x_min":33,"x_max":904,"o":"m 249 1053 l 476 676 l 685 1058 l 904 939 l 604 389 l 601 4 l 353 6 l 356 393 l 33 921 l 249 1053 m 432 1079 q 402 1091 414 1079 q 390 1121 390 1103 q 402 1151 390 1139 q 432 1163 414 1163 q 460 1151 449 1163 q 472 1121 472 1139 q 460 1091 472 1103 q 432 1079 449 1079 m 536 1079 q 507 1091 519 1079 q 494 1121 494 1103 q 507 1151 494 1139 q 536 1163 519 1163 q 565 1151 553 1163 q 578 1121 578 1139 q 565 1091 578 1103 q 536 1079 553 1079 z "},"Ý":{"ha":936,"x_min":33,"x_max":904,"o":"m 249 1053 l 476 676 l 685 1058 l 904 939 l 604 389 l 601 4 l 353 6 l 356 393 l 33 921 l 249 1053 m 632 1256 l 483 1078 l 392 1086 l 486 1250 l 632 1256 z "},"Ü":{"ha":894,"x_min":44,"x_max":846,"o":"m 326 958 q 321 927 326 958 q 308 844 315 896 q 295 728 301 793 q 287 595 289 663 q 290 463 285 528 q 310 347 294 397 q 353 265 325 296 q 425 236 381 235 q 494 259 465 236 q 542 319 522 282 q 574 406 563 357 q 589 508 585 456 q 593 650 594 578 q 587 788 592 722 q 575 906 582 853 q 563 992 568 960 l 808 1032 q 822 936 814 996 q 837 803 831 876 q 844 648 843 731 q 838 485 846 565 q 803 298 828 388 q 730 140 778 208 q 608 31 682 72 q 429 -12 535 -11 q 258 28 328 -15 q 145 142 189 71 q 80 303 101 213 q 51 490 58 394 q 48 678 44 586 q 59 842 51 769 q 74 958 67 914 q 82 1004 82 1003 l 326 958 m 397 1094 q 367 1106 379 1094 q 356 1136 356 1118 q 367 1166 356 1154 q 397 1178 379 1178 q 426 1166 414 1178 q 438 1136 438 1154 q 426 1106 438 1118 q 397 1094 414 1094 m 501 1094 q 472 1106 485 1094 q 460 1136 460 1118 q 472 1166 460 1154 q 501 1178 485 1178 q 531 1166 518 1178 q 543 1136 543 1154 q 531 1106 543 1118 q 501 1094 518 1094 z "},"Û":{"ha":894,"x_min":44,"x_max":846,"o":"m 326 958 q 321 927 326 958 q 308 844 315 896 q 295 728 301 793 q 287 595 289 663 q 290 463 285 528 q 310 347 294 397 q 353 265 325 296 q 425 236 381 235 q 494 259 465 236 q 542 319 522 282 q 574 406 563 357 q 589 508 585 456 q 593 650 594 578 q 587 788 592 722 q 575 906 582 853 q 563 992 568 960 l 808 1032 q 822 936 814 996 q 837 803 831 876 q 844 648 843 731 q 838 485 846 565 q 803 298 828 388 q 730 140 778 208 q 608 31 682 72 q 429 -12 535 -11 q 258 28 328 -15 q 145 142 189 71 q 80 303 101 213 q 51 490 58 394 q 48 678 44 586 q 59 842 51 769 q 74 958 67 914 q 82 1004 82 1003 l 326 958 m 324 1118 l 422 1276 l 508 1276 l 582 1110 l 494 1076 l 457 1161 l 406 1074 l 324 1118 z "},"Ú":{"ha":894,"x_min":44,"x_max":846,"o":"m 326 958 q 321 927 326 958 q 308 844 315 896 q 295 728 301 793 q 287 595 289 663 q 290 463 285 528 q 310 347 294 397 q 353 265 325 296 q 425 236 381 235 q 494 259 465 236 q 542 319 522 282 q 574 406 563 357 q 589 508 585 456 q 593 650 594 578 q 587 788 592 722 q 575 906 582 853 q 563 992 568 960 l 808 1032 q 822 936 814 996 q 837 803 831 876 q 844 648 843 731 q 838 485 846 565 q 803 298 828 388 q 730 140 778 208 q 608 31 682 72 q 429 -12 535 -11 q 258 28 328 -15 q 145 142 189 71 q 80 303 101 213 q 51 490 58 394 q 48 678 44 586 q 59 842 51 769 q 74 958 67 914 q 82 1004 82 1003 l 326 958 m 589 1258 l 440 1081 l 349 1089 l 443 1253 l 589 1258 z "},"Ù":{"ha":894,"x_min":44,"x_max":846,"o":"m 326 958 q 321 927 326 958 q 308 844 315 896 q 295 728 301 793 q 287 595 289 663 q 290 463 285 528 q 310 347 294 397 q 353 265 325 296 q 425 236 381 235 q 494 259 465 236 q 542 319 522 282 q 574 406 563 357 q 589 508 585 456 q 593 650 594 578 q 587 788 592 722 q 575 906 582 853 q 563 992 568 960 l 808 1032 q 822 936 814 996 q 837 803 831 876 q 844 648 843 731 q 838 485 846 565 q 803 298 828 388 q 730 140 778 208 q 608 31 682 72 q 429 -12 535 -11 q 258 28 328 -15 q 145 142 189 71 q 80 303 101 213 q 51 490 58 394 q 48 678 44 586 q 59 842 51 769 q 74 958 67 914 q 82 1004 82 1003 l 326 958 m 432 1258 l 526 1094 l 435 1086 l 288 1264 l 432 1258 z "},"Ö":{"ha":1047,"x_min":44,"x_max":994,"o":"m 519 1053 q 708 1011 621 1053 q 863 894 796 969 q 960 731 925 824 q 994 532 994 639 q 960 335 994 428 q 863 172 925 242 q 708 55 796 97 q 519 13 621 13 q 333 55 419 13 q 179 172 246 97 q 81 335 117 242 q 44 532 44 428 q 81 731 44 639 q 179 894 117 824 q 333 1011 246 969 q 519 1053 419 1053 m 675 729 q 604 782 643 763 q 519 801 565 801 q 435 782 475 801 q 367 729 396 763 q 315 641 333 692 q 296 532 296 590 q 315 424 296 474 q 367 338 333 375 q 435 283 396 303 q 519 264 475 264 q 604 283 565 264 q 675 338 643 303 q 726 424 707 375 q 744 532 744 474 q 726 641 744 590 q 675 729 707 692 m 471 1128 q 441 1140 453 1128 q 429 1169 429 1151 q 441 1199 429 1188 q 471 1211 453 1211 q 499 1199 488 1211 q 511 1169 511 1188 q 499 1140 511 1151 q 471 1128 488 1128 m 575 1128 q 546 1140 558 1128 q 533 1169 533 1151 q 546 1199 533 1188 q 575 1211 558 1211 q 604 1199 592 1211 q 617 1169 617 1188 q 604 1140 617 1151 q 575 1128 592 1128 z "},"Õ":{"ha":1047,"x_min":44,"x_max":994,"o":"m 519 1053 q 708 1011 621 1053 q 863 894 796 969 q 960 731 925 824 q 994 532 994 639 q 960 335 994 428 q 863 172 925 242 q 708 55 796 97 q 519 13 621 13 q 333 55 419 13 q 179 172 246 97 q 81 335 117 242 q 44 532 44 428 q 81 731 44 639 q 179 894 117 824 q 333 1011 246 969 q 519 1053 419 1053 m 675 729 q 604 782 643 763 q 519 801 565 801 q 435 782 475 801 q 367 729 396 763 q 315 641 333 692 q 296 532 296 590 q 315 424 296 474 q 367 338 333 375 q 435 283 396 303 q 519 264 475 264 q 604 283 565 264 q 675 338 643 303 q 726 424 707 375 q 744 532 744 474 q 726 641 744 590 q 675 729 707 692 m 343 1171 q 351 1185 343 1171 q 372 1217 358 1199 q 404 1253 386 1235 q 444 1281 422 1272 q 490 1285 465 1290 q 539 1253 514 1281 q 586 1215 572 1217 q 618 1257 596 1215 l 700 1213 q 642 1140 672 1161 q 579 1122 613 1119 q 522 1144 549 1125 q 469 1190 496 1163 q 460 1184 467 1193 q 446 1163 453 1175 q 428 1128 438 1147 l 343 1171 z "},"Ô":{"ha":1047,"x_min":44,"x_max":994,"o":"m 519 1053 q 708 1011 621 1053 q 863 894 796 969 q 960 731 925 824 q 994 532 994 639 q 960 335 994 428 q 863 172 925 242 q 708 55 796 97 q 519 13 621 13 q 333 55 419 13 q 179 172 246 97 q 81 335 117 242 q 44 532 44 428 q 81 731 44 639 q 179 894 117 824 q 333 1011 246 969 q 519 1053 419 1053 m 675 729 q 604 782 643 763 q 519 801 565 801 q 435 782 475 801 q 367 729 396 763 q 315 641 333 692 q 296 532 296 590 q 315 424 296 474 q 367 338 333 375 q 435 283 396 303 q 519 264 475 264 q 604 283 565 264 q 675 338 643 303 q 726 424 707 375 q 744 532 744 474 q 726 641 744 590 q 675 729 707 692 m 408 1153 l 507 1311 l 593 1311 l 667 1144 l 579 1111 l 542 1196 l 490 1108 l 408 1153 z "},"Ó":{"ha":1047,"x_min":44,"x_max":994,"o":"m 519 1053 q 708 1011 621 1053 q 863 894 796 969 q 960 731 925 824 q 994 532 994 639 q 960 335 994 428 q 863 172 925 242 q 708 55 796 97 q 519 13 621 13 q 333 55 419 13 q 179 172 246 97 q 81 335 117 242 q 44 532 44 428 q 81 731 44 639 q 179 894 117 824 q 333 1011 246 969 q 519 1053 419 1053 m 675 729 q 604 782 643 763 q 519 801 565 801 q 435 782 475 801 q 367 729 396 763 q 315 641 333 692 q 296 532 296 590 q 315 424 296 474 q 367 338 333 375 q 435 283 396 303 q 519 264 475 264 q 604 283 565 264 q 675 338 643 303 q 726 424 707 375 q 744 532 744 474 q 726 641 744 590 q 675 729 707 692 m 703 1313 l 554 1135 l 463 1143 l 557 1307 l 703 1313 z "},"Ò":{"ha":1047,"x_min":44,"x_max":994,"o":"m 519 1053 q 708 1011 621 1053 q 863 894 796 969 q 960 731 925 824 q 994 532 994 639 q 960 335 994 428 q 863 172 925 242 q 708 55 796 97 q 519 13 621 13 q 333 55 419 13 q 179 172 246 97 q 81 335 117 242 q 44 532 44 428 q 81 731 44 639 q 179 894 117 824 q 333 1011 246 969 q 519 1053 419 1053 m 675 729 q 604 782 643 763 q 519 801 565 801 q 435 782 475 801 q 367 729 396 763 q 315 641 333 692 q 296 532 296 590 q 315 424 296 474 q 367 338 333 375 q 435 283 396 303 q 519 264 475 264 q 604 283 565 264 q 675 338 643 303 q 726 424 707 375 q 744 532 744 474 q 726 641 744 590 q 675 729 707 692 m 549 1307 l 643 1143 l 551 1135 l 404 1313 l 549 1307 z "},"Ñ":{"ha":904,"x_min":50,"x_max":851,"o":"m 50 53 l 50 950 l 299 950 l 603 461 l 603 972 l 851 972 l 851 18 l 603 18 l 299 449 l 299 53 l 50 53 m 247 1079 q 255 1093 247 1079 q 276 1125 263 1107 q 308 1162 290 1143 q 348 1190 326 1181 q 394 1194 369 1199 q 443 1161 418 1189 q 490 1124 476 1125 q 522 1165 500 1124 l 604 1121 q 547 1049 576 1069 q 483 1031 517 1028 q 426 1052 453 1033 q 374 1099 400 1071 q 364 1092 371 1101 q 350 1071 357 1083 q 332 1036 342 1056 l 247 1079 z "},"à":{"ha":778,"x_min":51,"x_max":717,"o":"m 714 18 l 464 18 l 464 42 q 306 42 376 26 q 182 97 235 57 q 83 228 115 149 q 53 393 51 308 q 88 556 54 478 q 186 682 122 635 q 307 744 239 722 q 449 772 375 765 q 542 775 497 776 q 624 771 588 774 q 684 765 660 768 q 717 760 708 761 l 714 18 m 464 510 q 355 496 396 515 q 297 446 314 476 q 285 381 281 415 q 313 322 290 346 q 376 289 336 297 q 467 303 415 281 l 464 510 m 465 1018 l 560 854 l 468 846 l 321 1024 l 465 1018 z "},"á":{"ha":778,"x_min":51,"x_max":717,"o":"m 714 18 l 464 18 l 464 42 q 306 42 376 26 q 182 97 235 57 q 83 228 115 149 q 53 393 51 308 q 88 556 54 478 q 186 682 122 635 q 307 744 239 722 q 449 772 375 765 q 542 775 497 776 q 624 771 588 774 q 684 765 660 768 q 717 760 708 761 l 714 18 m 464 510 q 355 496 396 515 q 297 446 314 476 q 285 381 281 415 q 313 322 290 346 q 376 289 336 297 q 467 303 415 281 l 464 510 m 644 1018 l 496 840 l 404 849 l 499 1013 l 644 1018 z "},"â":{"ha":778,"x_min":51,"x_max":717,"o":"m 714 18 l 464 18 l 464 42 q 306 42 376 26 q 182 97 235 57 q 83 228 115 149 q 53 393 51 308 q 88 556 54 478 q 186 682 122 635 q 307 744 239 722 q 449 772 375 765 q 542 775 497 776 q 624 771 588 774 q 684 765 660 768 q 717 760 708 761 l 714 18 m 464 510 q 355 496 396 515 q 297 446 314 476 q 285 381 281 415 q 313 322 290 346 q 376 289 336 297 q 467 303 415 281 l 464 510 m 363 879 l 461 1038 l 547 1038 l 621 871 l 533 838 l 496 922 l 444 835 l 363 879 z "},"ã":{"ha":778,"x_min":51,"x_max":717,"o":"m 714 18 l 464 18 l 464 42 q 306 42 376 26 q 182 97 235 57 q 83 228 115 149 q 53 393 51 308 q 88 556 54 478 q 186 682 122 635 q 307 744 239 722 q 449 772 375 765 q 542 775 497 776 q 624 771 588 774 q 684 765 660 768 q 717 760 708 761 l 714 18 m 464 510 q 355 496 396 515 q 297 446 314 476 q 285 381 281 415 q 313 322 290 346 q 376 289 336 297 q 467 303 415 281 l 464 510 m 289 903 q 297 917 289 903 q 318 949 304 931 q 350 985 332 967 q 390 1013 368 1004 q 435 1017 411 1022 q 485 985 460 1013 q 532 947 518 949 q 564 989 542 947 l 646 944 q 588 872 618 893 q 525 854 558 851 q 468 876 494 857 q 415 922 442 894 q 406 916 413 925 q 392 894 399 907 q 374 860 383 879 l 289 903 z "},"ä":{"ha":778,"x_min":51,"x_max":717,"o":"m 714 18 l 464 18 l 464 42 q 306 42 376 26 q 182 97 235 57 q 83 228 115 149 q 53 393 51 308 q 88 556 54 478 q 186 682 122 635 q 307 744 239 722 q 449 772 375 765 q 542 775 497 776 q 624 771 588 774 q 684 765 660 768 q 717 760 708 761 l 714 18 m 464 510 q 355 496 396 515 q 297 446 314 476 q 285 381 281 415 q 313 322 290 346 q 376 289 336 297 q 467 303 415 281 l 464 510 m 432 856 q 402 867 414 856 q 390 897 390 879 q 402 927 390 915 q 432 939 414 939 q 460 927 449 939 q 472 897 472 915 q 460 867 472 879 q 432 856 449 856 m 536 856 q 507 867 519 856 q 494 897 494 879 q 507 927 494 915 q 536 939 519 939 q 565 927 553 939 q 578 897 578 915 q 565 867 578 879 q 536 856 553 856 z "},"å":{"ha":778,"x_min":51,"x_max":717,"o":"m 714 18 l 464 18 l 464 42 q 306 42 376 26 q 182 97 235 57 q 83 228 115 149 q 53 393 51 308 q 88 556 54 478 q 186 682 122 635 q 307 744 239 722 q 449 772 375 765 q 542 775 497 776 q 624 771 588 774 q 684 765 660 768 q 717 760 708 761 l 714 18 m 464 510 q 355 496 396 515 q 297 446 314 476 q 285 381 281 415 q 313 322 290 346 q 376 289 336 297 q 467 303 415 281 l 464 510 m 525 1053 q 602 1021 569 1053 q 635 943 635 989 q 602 866 635 899 q 525 833 569 833 q 448 866 481 833 q 415 943 415 899 q 448 1021 415 989 q 525 1053 481 1053 m 525 983 q 497 972 508 983 q 485 943 485 960 q 497 915 485 926 q 525 903 508 903 q 554 915 543 903 q 565 943 565 926 q 554 972 565 960 q 525 983 543 983 z "},"è":{"ha":751,"x_min":50,"x_max":694,"o":"m 499 439 q 470 521 500 490 q 401 553 440 551 q 326 527 363 556 q 282 435 290 499 l 499 439 m 594 260 l 286 260 q 320 212 294 226 q 375 197 346 197 q 428 210 404 197 q 457 244 453 222 l 669 199 q 601 62 653 115 q 481 -14 549 8 q 337 -26 413 -36 q 198 28 261 -17 q 93 151 135 72 q 50 346 51 229 q 77 510 50 438 q 149 636 104 583 q 252 720 194 689 q 369 758 310 751 q 488 747 429 765 q 591 681 546 728 q 665 559 636 635 q 694 376 693 483 q 693 319 694 349 q 686 260 692 290 l 594 260 m 414 992 l 508 828 l 417 819 l 269 997 l 414 992 z "},"é":{"ha":751,"x_min":50,"x_max":694,"o":"m 499 439 q 470 521 500 490 q 401 553 440 551 q 326 527 363 556 q 282 435 290 499 l 499 439 m 594 260 l 286 260 q 320 212 294 226 q 375 197 346 197 q 428 210 404 197 q 457 244 453 222 l 669 199 q 601 62 653 115 q 481 -14 549 8 q 337 -26 413 -36 q 198 28 261 -17 q 93 151 135 72 q 50 346 51 229 q 77 510 50 438 q 149 636 104 583 q 252 720 194 689 q 369 758 310 751 q 488 747 429 765 q 591 681 546 728 q 665 559 636 635 q 694 376 693 483 q 693 319 694 349 q 686 260 692 290 l 594 260 m 565 986 l 417 808 l 325 817 l 419 981 l 565 986 z "},"ê":{"ha":751,"x_min":50,"x_max":694,"o":"m 499 439 q 470 521 500 490 q 401 553 440 551 q 326 527 363 556 q 282 435 290 499 l 499 439 m 594 260 l 286 260 q 320 212 294 226 q 375 197 346 197 q 428 210 404 197 q 457 244 453 222 l 669 199 q 601 62 653 115 q 481 -14 549 8 q 337 -26 413 -36 q 198 28 261 -17 q 93 151 135 72 q 50 346 51 229 q 77 510 50 438 q 149 636 104 583 q 252 720 194 689 q 369 758 310 751 q 488 747 429 765 q 591 681 546 728 q 665 559 636 635 q 694 376 693 483 q 693 319 694 349 q 686 260 692 290 l 594 260 m 286 867 l 385 1025 l 471 1025 l 544 858 l 457 825 l 419 910 l 368 822 l 286 867 z "},"ë":{"ha":751,"x_min":50,"x_max":694,"o":"m 499 439 q 470 521 500 490 q 401 553 440 551 q 326 527 363 556 q 282 435 290 499 l 499 439 m 594 260 l 286 260 q 320 212 294 226 q 375 197 346 197 q 428 210 404 197 q 457 244 453 222 l 669 199 q 601 62 653 115 q 481 -14 549 8 q 337 -26 413 -36 q 198 28 261 -17 q 93 151 135 72 q 50 346 51 229 q 77 510 50 438 q 149 636 104 583 q 252 720 194 689 q 369 758 310 751 q 488 747 429 765 q 591 681 546 728 q 665 559 636 635 q 694 376 693 483 q 693 319 694 349 q 686 260 692 290 l 594 260 m 375 838 q 345 849 357 838 q 333 879 333 861 q 345 909 333 897 q 375 921 357 921 q 403 909 392 921 q 415 879 415 897 q 403 849 415 861 q 375 838 392 838 m 479 838 q 450 849 463 838 q 438 879 438 861 q 450 909 438 897 q 479 921 463 921 q 508 909 496 921 q 521 879 521 897 q 508 849 521 861 q 479 838 496 838 z "},"ì":{"ha":374,"x_min":60,"x_max":310,"o":"m 310 751 l 310 43 l 60 43 l 60 751 l 310 751 m 211 986 l 306 822 l 214 814 l 67 992 l 211 986 z "},"í":{"ha":374,"x_min":60,"x_max":364,"o":"m 310 751 l 310 43 l 60 43 l 60 751 l 310 751 m 364 999 l 215 821 l 124 829 l 218 993 l 364 999 z "},"î":{"ha":374,"x_min":60,"x_max":318,"o":"m 310 751 l 310 43 l 60 43 l 60 751 l 310 751 m 60 868 l 158 1026 l 244 1026 l 318 860 l 231 826 l 193 911 l 142 824 l 60 868 z "},"ï":{"ha":374,"x_min":60,"x_max":310,"o":"m 310 751 l 310 43 l 60 43 l 60 751 l 310 751 m 140 828 q 110 840 122 828 q 99 869 99 851 q 110 899 99 888 q 140 911 122 911 q 169 899 157 911 q 181 869 181 888 q 169 840 181 851 q 140 828 157 828 m 244 828 q 215 840 228 828 q 203 869 203 851 q 215 899 203 888 q 244 911 228 911 q 274 899 261 911 q 286 869 286 888 q 274 840 286 851 q 244 828 261 828 z "},"ò":{"ha":881,"x_min":54,"x_max":831,"o":"m 442 811 q 597 778 525 811 q 720 689 668 744 q 801 563 772 633 q 831 417 831 492 q 799 263 831 335 q 715 136 768 190 q 590 50 661 82 q 442 18 519 18 q 287 52 358 18 q 164 142 215 86 q 83 270 113 199 q 54 417 54 342 q 85 569 54 497 q 170 695 117 642 q 294 780 224 749 q 442 811 364 811 m 442 563 q 387 550 413 563 q 343 517 361 538 q 315 469 325 496 q 304 417 304 443 q 315 361 304 388 q 344 314 325 335 q 388 281 363 293 q 442 269 413 269 q 498 282 472 269 q 542 315 524 294 q 570 363 560 336 q 581 417 581 389 q 569 472 581 446 q 540 519 558 499 q 495 551 521 539 q 442 563 469 563 m 465 1029 l 560 865 l 468 857 l 321 1035 l 465 1029 z "},"ó":{"ha":881,"x_min":54,"x_max":831,"o":"m 442 811 q 597 778 525 811 q 720 689 668 744 q 801 563 772 633 q 831 417 831 492 q 799 263 831 335 q 715 136 768 190 q 590 50 661 82 q 442 18 519 18 q 287 52 358 18 q 164 142 215 86 q 83 270 113 199 q 54 417 54 342 q 85 569 54 497 q 170 695 117 642 q 294 780 224 749 q 442 811 364 811 m 442 563 q 387 550 413 563 q 343 517 361 538 q 315 469 325 496 q 304 417 304 443 q 315 361 304 388 q 344 314 325 335 q 388 281 363 293 q 442 269 413 269 q 498 282 472 269 q 542 315 524 294 q 570 363 560 336 q 581 417 581 389 q 569 472 581 446 q 540 519 558 499 q 495 551 521 539 q 442 563 469 563 m 578 1035 l 429 857 l 338 865 l 432 1029 l 578 1035 z "},"ô":{"ha":881,"x_min":54,"x_max":831,"o":"m 442 811 q 597 778 525 811 q 720 689 668 744 q 801 563 772 633 q 831 417 831 492 q 799 263 831 335 q 715 136 768 190 q 590 50 661 82 q 442 18 519 18 q 287 52 358 18 q 164 142 215 86 q 83 270 113 199 q 54 417 54 342 q 85 569 54 497 q 170 695 117 642 q 294 780 224 749 q 442 811 364 811 m 442 563 q 387 550 413 563 q 343 517 361 538 q 315 469 325 496 q 304 417 304 443 q 315 361 304 388 q 344 314 325 335 q 388 281 363 293 q 442 269 413 269 q 498 282 472 269 q 542 315 524 294 q 570 363 560 336 q 581 417 581 389 q 569 472 581 446 q 540 519 558 499 q 495 551 521 539 q 442 563 469 563 m 311 910 l 410 1068 l 496 1068 l 569 901 l 482 868 l 444 953 l 393 865 l 311 910 z "},"õ":{"ha":881,"x_min":54,"x_max":831,"o":"m 442 811 q 597 778 525 811 q 720 689 668 744 q 801 563 772 633 q 831 417 831 492 q 799 263 831 335 q 715 136 768 190 q 590 50 661 82 q 442 18 519 18 q 287 52 358 18 q 164 142 215 86 q 83 270 113 199 q 54 417 54 342 q 85 569 54 497 q 170 695 117 642 q 294 780 224 749 q 442 811 364 811 m 442 563 q 387 550 413 563 q 343 517 361 538 q 315 469 325 496 q 304 417 304 443 q 315 361 304 388 q 344 314 325 335 q 388 281 363 293 q 442 269 413 269 q 498 282 472 269 q 542 315 524 294 q 570 363 560 336 q 581 417 581 389 q 569 472 581 446 q 540 519 558 499 q 495 551 521 539 q 442 563 469 563 m 261 925 q 269 939 261 925 q 290 971 276 953 q 322 1008 304 989 q 362 1035 340 1026 q 408 1040 383 1044 q 457 1007 432 1035 q 504 969 490 971 q 536 1011 514 969 l 618 967 q 560 894 590 915 q 497 876 531 874 q 440 898 467 879 q 388 944 414 917 q 378 938 385 947 q 364 917 371 929 q 346 882 356 901 l 261 925 z "},"ö":{"ha":881,"x_min":54,"x_max":831,"o":"m 442 811 q 597 778 525 811 q 720 689 668 744 q 801 563 772 633 q 831 417 831 492 q 799 263 831 335 q 715 136 768 190 q 590 50 661 82 q 442 18 519 18 q 287 52 358 18 q 164 142 215 86 q 83 270 113 199 q 54 417 54 342 q 85 569 54 497 q 170 695 117 642 q 294 780 224 749 q 442 811 364 811 m 442 563 q 387 550 413 563 q 343 517 361 538 q 315 469 325 496 q 304 417 304 443 q 315 361 304 388 q 344 314 325 335 q 388 281 363 293 q 442 269 413 269 q 498 282 472 269 q 542 315 524 294 q 570 363 560 336 q 581 417 581 389 q 569 472 581 446 q 540 519 558 499 q 495 551 521 539 q 442 563 469 563 m 388 876 q 358 888 369 876 q 346 918 346 900 q 358 948 346 936 q 388 960 369 960 q 416 948 404 960 q 428 918 428 936 q 416 888 428 900 q 388 876 404 876 m 492 876 q 463 888 475 876 q 450 918 450 900 q 463 948 450 936 q 492 960 475 960 q 521 948 508 960 q 533 918 533 936 q 521 888 533 900 q 492 876 508 876 z "},"ù":{"ha":754,"x_min":54,"x_max":692,"o":"m 306 729 l 306 374 q 329 279 307 308 q 376 252 351 250 q 421 286 401 254 q 439 376 440 318 l 439 713 l 690 713 l 689 360 q 645 160 692 242 q 528 34 599 78 q 374 -13 457 -10 q 219 22 290 -17 q 101 143 147 61 q 56 353 54 225 l 56 729 l 306 729 m 375 979 l 469 815 l 378 807 l 231 985 l 375 979 z "},"ú":{"ha":754,"x_min":54,"x_max":692,"o":"m 306 729 l 306 374 q 329 279 307 308 q 376 252 351 250 q 421 286 401 254 q 439 376 440 318 l 439 713 l 690 713 l 689 360 q 645 160 692 242 q 528 34 599 78 q 374 -13 457 -10 q 219 22 290 -17 q 101 143 147 61 q 56 353 54 225 l 56 729 l 306 729 m 563 999 l 414 821 l 322 829 l 417 993 l 563 999 z "},"ÿ":{"ha":800,"x_min":18,"x_max":774,"o":"m 774 776 l 596 96 l 594 96 q 581 53 593 89 q 541 -28 568 17 q 471 -117 514 -74 q 365 -183 428 -161 q 215 -196 301 -206 q 18 -125 129 -186 l 139 93 q 215 65 182 69 q 272 67 249 60 q 311 90 296 75 q 336 122 326 106 q 349 149 346 138 q 353 161 353 161 l 353 163 l 356 169 q 231 198 282 176 q 147 250 181 219 q 95 316 114 281 q 68 385 76 351 q 58 446 60 418 q 57 488 56 474 l 56 488 l 56 776 l 304 776 l 304 488 q 319 428 303 451 q 358 401 335 404 q 404 419 381 399 q 442 489 428 439 l 521 790 l 774 776 m 368 864 q 338 876 350 864 q 326 906 326 888 q 338 935 326 924 q 368 947 350 947 q 397 935 385 947 q 408 906 408 924 q 397 876 408 888 q 368 864 385 864 m 472 864 q 443 876 456 864 q 431 906 431 888 q 443 935 431 924 q 472 947 456 947 q 501 935 489 947 q 514 906 514 924 q 501 876 514 888 q 472 864 489 864 z "},"ý":{"ha":800,"x_min":18,"x_max":774,"o":"m 774 776 l 596 96 l 594 96 q 581 53 593 89 q 541 -28 568 17 q 471 -117 514 -74 q 365 -183 428 -161 q 215 -196 301 -206 q 18 -125 129 -186 l 139 93 q 215 65 182 69 q 272 67 249 60 q 311 90 296 75 q 336 122 326 106 q 349 149 346 138 q 353 161 353 161 l 353 163 l 356 169 q 231 198 282 176 q 147 250 181 219 q 95 316 114 281 q 68 385 76 351 q 58 446 60 418 q 57 488 56 474 l 56 488 l 56 776 l 304 776 l 304 488 q 319 428 303 451 q 358 401 335 404 q 404 419 381 399 q 442 489 428 439 l 521 790 l 774 776 m 592 1035 l 443 857 l 351 865 l 446 1029 l 592 1035 z "},"ü":{"ha":754,"x_min":54,"x_max":692,"o":"m 306 729 l 306 374 q 329 279 307 308 q 376 252 351 250 q 421 286 401 254 q 439 376 440 318 l 439 713 l 690 713 l 689 360 q 645 160 692 242 q 528 34 599 78 q 374 -13 457 -10 q 219 22 290 -17 q 101 143 147 61 q 56 353 54 225 l 56 729 l 306 729 m 325 822 q 295 834 307 822 q 283 864 283 846 q 295 894 283 882 q 325 906 307 906 q 353 894 342 906 q 365 864 365 882 q 353 834 365 846 q 325 822 342 822 m 429 822 q 400 834 413 822 q 388 864 388 846 q 400 894 388 882 q 429 906 413 906 q 458 894 446 906 q 471 864 471 882 q 458 834 471 846 q 429 822 446 822 z "},"û":{"ha":754,"x_min":54,"x_max":692,"o":"m 306 729 l 306 374 q 329 279 307 308 q 376 252 351 250 q 421 286 401 254 q 439 376 440 318 l 439 713 l 690 713 l 689 360 q 645 160 692 242 q 528 34 599 78 q 374 -13 457 -10 q 219 22 290 -17 q 101 143 147 61 q 56 353 54 225 l 56 729 l 306 729 m 247 850 l 346 1008 l 432 1008 l 506 842 l 418 808 l 381 893 l 329 806 l 247 850 z "},"n":{"ha":801,"x_min":63,"x_max":740,"o":"m 313 32 l 63 32 l 63 772 l 256 772 q 278 783 267 779 q 433 816 356 814 q 576 789 511 818 q 685 698 640 760 q 740 540 729 636 l 740 529 l 740 49 l 492 49 l 492 501 q 463 595 492 567 q 399 620 433 624 q 336 584 364 617 q 313 496 308 551 l 313 32 z "},"m":{"ha":1179,"x_min":51,"x_max":1122,"o":"m 713 43 l 461 43 l 461 444 q 438 519 461 494 q 385 544 414 543 q 331 522 356 546 q 301 453 306 499 l 301 43 l 51 43 l 51 758 l 256 758 q 445 785 358 797 q 594 722 532 774 q 666 760 632 747 q 729 780 700 774 q 781 787 758 786 q 815 788 803 788 q 940 763 883 788 q 1036 694 996 739 q 1099 585 1076 649 q 1122 444 1122 521 l 1122 43 l 872 43 l 872 444 q 849 519 872 494 q 796 544 825 543 q 742 522 767 546 q 713 453 717 499 l 713 43 z "},"ñ":{"ha":801,"x_min":63,"x_max":740,"o":"m 313 32 l 63 32 l 63 772 l 256 772 q 278 783 267 779 q 433 816 356 814 q 576 789 511 818 q 685 698 640 760 q 740 540 729 636 l 740 529 l 740 49 l 492 49 l 492 501 q 463 595 492 567 q 399 620 433 624 q 336 584 364 617 q 313 496 308 551 l 313 32 m 222 925 q 230 939 222 925 q 251 971 238 953 q 283 1008 265 989 q 323 1035 301 1026 q 369 1040 344 1044 q 418 1007 393 1035 q 465 969 451 971 q 497 1011 475 969 l 579 967 q 522 894 551 915 q 458 876 492 874 q 401 898 428 879 q 349 944 375 917 q 339 938 346 947 q 325 917 332 929 q 307 882 317 901 l 222 925 z "},"'":{"ha":342,"x_min":61,"x_max":272,"o":"m 88 1042 l 272 1042 l 175 725 l 61 725 l 88 1042 z "},"\"":{"ha":561,"x_min":61,"x_max":506,"o":"m 88 1042 l 272 1042 l 175 725 l 61 725 l 88 1042 m 321 1042 l 506 1042 l 408 725 l 294 725 l 321 1042 z "},"”":{"ha":561,"x_min":61,"x_max":506,"o":"m 88 1042 l 272 1042 l 175 725 l 61 725 l 88 1042 m 321 1042 l 506 1042 l 408 725 l 294 725 l 321 1042 z "},"“":{"ha":561,"x_min":61,"x_max":506,"o":"m 61 1042 l 175 1042 l 272 725 l 88 725 l 61 1042 m 294 1042 l 408 1042 l 506 725 l 321 725 l 294 1042 z "},"’":{"ha":342,"x_min":61,"x_max":272,"o":"m 88 1042 l 272 1042 l 175 725 l 61 725 l 88 1042 z "},"‘":{"ha":342,"x_min":61,"x_max":272,"o":"m 61 1042 l 175 1042 l 272 725 l 88 725 l 61 1042 z "},"A":{"ha":844,"x_min":11,"x_max":838,"o":"m 11 51 l 288 1064 l 629 1064 l 838 78 l 596 28 l 561 183 l 306 183 l 251 -14 l 11 51 m 508 433 l 449 715 l 372 433 l 508 433 z "},"L":{"ha":597,"x_min":54,"x_max":546,"o":"m 304 1036 l 304 244 l 546 244 l 546 -4 l 54 -4 l 54 1036 l 304 1036 z "},"P":{"ha":829,"x_min":53,"x_max":782,"o":"m 301 1042 q 513 1018 422 1051 q 663 923 603 985 q 752 780 722 861 q 781 613 782 699 q 750 444 781 526 q 660 297 719 361 q 510 194 600 232 q 301 158 421 156 l 301 17 l 53 17 l 53 1042 l 301 1042 m 300 392 q 419 431 369 397 q 498 510 469 464 q 530 608 526 556 q 510 703 533 660 q 435 776 488 747 q 299 803 383 804 l 300 392 z "}}}
